<svg width="16" height="19" viewBox="0 0 16 19" fill="none" xmlns="http://www.w3.org/2000/svg">
<path d="M1.70005 0H14.3C14.5387 0 14.7677 0.0948211 14.9364 0.263604C15.1052 0.432387 15.2 0.661305 15.2 0.9V18.1287C15.2001 18.2092 15.1787 18.2882 15.1379 18.3575C15.097 18.4269 15.0384 18.484 14.968 18.523C14.8976 18.5619 14.818 18.5813 14.7376 18.5791C14.6571 18.5769 14.5788 18.5531 14.5106 18.5103L8.00005 14.427L1.48945 18.5094C1.42138 18.5522 1.3431 18.5759 1.26274 18.5782C1.18238 18.5805 1.10289 18.5612 1.03251 18.5223C0.962142 18.4834 0.903465 18.4264 0.862583 18.3572C0.821702 18.288 0.800109 18.2091 0.800049 18.1287V0.9C0.800049 0.661305 0.89487 0.432387 1.06365 0.263604C1.23244 0.0948211 1.46135 0 1.70005 0ZM13.4 1.8H2.60005V15.6888L8.00005 12.3039L13.4 15.6888V1.8Z" fill="#5BF5FF"/>
</svg>
