<svg width="16" height="21" viewBox="0 0 16 21" fill="none" xmlns="http://www.w3.org/2000/svg">
<path d="M1.17495 0.25H14.8249C15.0835 0.25 15.3315 0.352723 15.5144 0.535571C15.6972 0.718419 15.7999 0.966414 15.7999 1.225V19.8894C15.8001 19.9766 15.7768 20.0622 15.7326 20.1373C15.6884 20.2124 15.6248 20.2743 15.5485 20.3166C15.4723 20.3588 15.3861 20.3798 15.2989 20.3773C15.2118 20.3749 15.1269 20.3492 15.0531 20.3028L7.99995 15.8792L0.946801 20.3018C0.87306 20.3482 0.788254 20.3739 0.701201 20.3764C0.614147 20.3788 0.528025 20.3579 0.451789 20.3158C0.375553 20.2737 0.311985 20.212 0.267697 20.137C0.223408 20.062 0.200016 19.9765 0.199951 19.8894V1.225C0.199951 0.966414 0.302674 0.718419 0.485522 0.535571C0.66837 0.352723 0.916365 0.25 1.17495 0.25ZM13.8499 2.2H2.14995V17.2462L7.99995 13.5792L13.8499 17.2462V2.2Z" fill="#5BF5FF"/>
</svg>
