<svg width="10" height="13" viewBox="0 0 10 13" fill="none" xmlns="http://www.w3.org/2000/svg">
<path d="M1.00039 0H9.40039C9.55952 0 9.71213 0.0632141 9.82466 0.175736C9.93718 0.288258 10.0004 0.44087 10.0004 0.6V12.0858C10.0005 12.1394 9.98614 12.1921 9.95893 12.2384C9.93172 12.2846 9.89261 12.3227 9.84568 12.3486C9.79874 12.3746 9.7457 12.3875 9.69208 12.3861C9.63846 12.3846 9.58621 12.3687 9.54079 12.3402L5.20039 9.618L0.859991 12.3396C0.814611 12.3681 0.762423 12.3839 0.708852 12.3855C0.655281 12.387 0.602282 12.3741 0.555368 12.3482C0.508453 12.3223 0.469335 12.2843 0.44208 12.2381C0.414826 12.192 0.400431 12.1394 0.400391 12.0858V0.6C0.400391 0.44087 0.463605 0.288258 0.576127 0.175736C0.688648 0.0632141 0.841261 0 1.00039 0ZM8.80039 1.2H1.60039V10.4592L5.20039 8.2026L8.80039 10.4592V1.2Z" fill="#0A0D14"/>
</svg>
