<svg width="20" height="21" viewBox="0 0 20 21" fill="none" xmlns="http://www.w3.org/2000/svg">
<path d="M4.75 2.53125H15.25C15.4489 2.53125 15.6397 2.61027 15.7803 2.75092C15.921 2.89157 16 3.08234 16 3.28125V17.6385C16.0001 17.7056 15.9822 17.7714 15.9482 17.8292C15.9142 17.887 15.8653 17.9346 15.8066 17.9671C15.7479 17.9995 15.6816 18.0157 15.6146 18.0138C15.5476 18.012 15.4823 17.9922 15.4255 17.9565L10 14.5538L4.5745 17.9557C4.51778 17.9914 4.45254 18.0112 4.38558 18.0131C4.31861 18.015 4.25236 17.9989 4.19372 17.9665C4.13508 17.9341 4.08618 17.8866 4.05211 17.8289C4.01804 17.7712 4.00005 17.7055 4 17.6385V3.28125C4 3.08234 4.07902 2.89157 4.21967 2.75092C4.36032 2.61027 4.55109 2.53125 4.75 2.53125Z" fill="#5BF5FF"/>
</svg>
