<svg width="12" height="13" viewBox="0 0 12 13" fill="none" xmlns="http://www.w3.org/2000/svg">
<path d="M6 12.0311C2.6862 12.0311 0 9.34493 0 6.03113C0 2.71733 2.6862 0.0311279 6 0.0311279C9.3138 0.0311279 12 2.71733 12 6.03113C12 9.34493 9.3138 12.0311 6 12.0311ZM6 10.8311C7.27304 10.8311 8.49394 10.3254 9.39411 9.42524C10.2943 8.52507 10.8 7.30417 10.8 6.03113C10.8 4.75809 10.2943 3.53719 9.39411 2.63702C8.49394 1.73684 7.27304 1.23113 6 1.23113C4.72696 1.23113 3.50606 1.73684 2.60589 2.63702C1.70571 3.53719 1.2 4.75809 1.2 6.03113C1.2 7.30417 1.70571 8.52507 2.60589 9.42524C3.50606 10.3254 4.72696 10.8311 6 10.8311ZM6.6 6.03113H9V7.23113H5.4V3.03113H6.6V6.03113Z" fill="white"/>
</svg>
