<svg width="12" height="13" viewBox="0 0 12 13" fill="none" xmlns="http://www.w3.org/2000/svg">
<path d="M6 12.5C2.6862 12.5 0 9.8138 0 6.5C0 3.1862 2.6862 0.5 6 0.5C9.3138 0.5 12 3.1862 12 6.5C12 9.8138 9.3138 12.5 6 12.5ZM6 11.3C7.27304 11.3 8.49394 10.7943 9.39411 9.89411C10.2943 8.99394 10.8 7.77304 10.8 6.5C10.8 5.22696 10.2943 4.00606 9.39411 3.10589C8.49394 2.20571 7.27304 1.7 6 1.7C4.72696 1.7 3.50606 2.20571 2.60589 3.10589C1.70571 4.00606 1.2 5.22696 1.2 6.5C1.2 7.77304 1.70571 8.99394 2.60589 9.89411C3.50606 10.7943 4.72696 11.3 6 11.3ZM6.6 6.5H9V7.7H5.4V3.5H6.6V6.5Z" fill="#0A0D14"/>
</svg>
