<svg width="24" height="25" viewBox="0 0 24 25" fill="none" xmlns="http://www.w3.org/2000/svg">
<path d="M5.69995 12.1C5.69995 9.55481 5.69995 8.28131 6.49105 7.49111C7.28125 6.70001 8.55475 6.70001 11.1 6.70001H13.8C16.3452 6.70001 17.6187 6.70001 18.4089 7.49111C19.2 8.28131 19.2 9.55481 19.2 12.1V16.6C19.2 19.1452 19.2 20.4187 18.4089 21.2089C17.6187 22 16.3452 22 13.8 22H11.1C8.55475 22 7.28125 22 6.49105 21.2089C5.69995 20.4187 5.69995 19.1452 5.69995 16.6V12.1Z" stroke="#5BF5FF" stroke-width="1.5"/>
<path d="M5.7 19.3C4.98392 19.3 4.29716 19.0155 3.79081 18.5092C3.28446 18.0028 3 17.3161 3 16.6V11.2C3 7.8061 3 6.1087 4.0548 5.0548C5.1096 4.0009 6.8061 4 10.2 4H13.8C14.5161 4 15.2028 4.28446 15.7092 4.79081C16.2155 5.29716 16.5 5.98392 16.5 6.7" stroke="#5BF5FF" stroke-width="1.5"/>
</svg>
