<svg width="390" height="51" viewBox="0 0 390 51" fill="none" xmlns="http://www.w3.org/2000/svg">
<g filter="url(#filter0_d_318_2545)">
<rect x="35" y="13.5" width="24" height="24" rx="6" fill="#282C3A"/>
<path d="M46.2043 25.4992L49.9168 29.2117L48.8563 30.2722L44.0833 25.4992L48.8563 20.7262L49.9168 21.7867L46.2043 25.4992Z" fill="#CDD0D5"/>
</g>
<path d="M84.9142 20V11.2727H90.1472V12.2102H85.9711V15.1591H89.7551V16.0966H85.9711V20H84.9142ZM91.7505 20V13.4545H92.7221V14.4432H92.7903C92.9096 14.1193 93.1255 13.8565 93.438 13.6548C93.7505 13.4531 94.1028 13.3523 94.4949 13.3523C94.5687 13.3523 94.661 13.3537 94.7718 13.3565C94.8826 13.3594 94.9664 13.3636 95.0233 13.3693V14.392C94.9892 14.3835 94.911 14.3707 94.7889 14.3537C94.6696 14.3338 94.5431 14.3239 94.4096 14.3239C94.0914 14.3239 93.8074 14.3906 93.5574 14.5241C93.3102 14.6548 93.1142 14.8366 92.9693 15.0696C92.8272 15.2997 92.7562 15.5625 92.7562 15.858V20H91.7505ZM96.2154 20V13.4545H97.2211V20H96.2154ZM96.7267 12.3636C96.5307 12.3636 96.3617 12.2969 96.2196 12.1634C96.0804 12.0298 96.0108 11.8693 96.0108 11.6818C96.0108 11.4943 96.0804 11.3338 96.2196 11.2003C96.3617 11.0668 96.5307 11 96.7267 11C96.9228 11 97.0904 11.0668 97.2296 11.2003C97.3716 11.3338 97.4426 11.4943 97.4426 11.6818C97.4426 11.8693 97.3716 12.0298 97.2296 12.1634C97.0904 12.2969 96.9228 12.3636 96.7267 12.3636Z" fill="#525866"/>
<path d="M83.1505 35.9659H84.9289C84.9668 36.3258 85.0899 36.6326 85.2982 36.8864C85.5103 37.1364 85.7869 37.3258 86.1278 37.4545C86.4687 37.5833 86.8475 37.6477 87.2641 37.6477C87.7111 37.6477 88.1107 37.572 88.463 37.4205C88.8191 37.2689 89.0994 37.0455 89.3039 36.75C89.5085 36.4545 89.6107 36.0909 89.6107 35.6591C89.6107 35.2727 89.5179 34.9167 89.3323 34.5909C89.1467 34.2652 88.855 34.0038 88.4573 33.8068C88.0596 33.6098 87.5407 33.5114 86.9005 33.5114H85.8607V32.1818L88.6562 28.9545V28.8693H83.7244V27.3636H90.9516V28.6364L87.838 32.2045V32.2955C88.3759 32.3295 88.8626 32.4413 89.2982 32.6307C89.7376 32.8201 90.1126 33.0701 90.4232 33.3807C90.7338 33.6875 90.9725 34.0398 91.1391 34.4375C91.3058 34.8352 91.3891 35.2614 91.3891 35.7159C91.3891 36.3864 91.2111 36.9811 90.855 37.5C90.499 38.0189 90.0085 38.4261 89.3835 38.7216C88.7622 39.0133 88.0501 39.1591 87.2471 39.1591C86.5009 39.1591 85.8247 39.0303 85.2187 38.7727C84.6164 38.5152 84.1297 38.1477 83.7585 37.6705C83.391 37.1932 83.1884 36.625 83.1505 35.9659ZM97.7586 27.3636V39H95.9972V29.125H95.929L93.145 30.9432V29.2614L96.0484 27.3636H97.7586Z" fill="#525866"/>
<path d="M139.443 13.4545C139.392 13.0227 139.184 12.6875 138.821 12.4489C138.457 12.2102 138.011 12.0909 137.483 12.0909C137.096 12.0909 136.758 12.1534 136.468 12.2784C136.181 12.4034 135.957 12.5753 135.795 12.794C135.636 13.0128 135.556 13.2614 135.556 13.5398C135.556 13.7727 135.612 13.973 135.723 14.1406C135.836 14.3054 135.981 14.4432 136.157 14.554C136.333 14.6619 136.518 14.7514 136.711 14.8224C136.904 14.8906 137.082 14.946 137.244 14.9886L138.13 15.2273C138.358 15.2869 138.61 15.3693 138.889 15.4744C139.17 15.5795 139.439 15.723 139.694 15.9048C139.953 16.0838 140.166 16.3139 140.333 16.5952C140.501 16.8764 140.585 17.2216 140.585 17.6307C140.585 18.1023 140.461 18.5284 140.214 18.9091C139.97 19.2898 139.612 19.5923 139.14 19.8168C138.672 20.0412 138.102 20.1534 137.431 20.1534C136.806 20.1534 136.265 20.0526 135.808 19.8509C135.353 19.6491 134.995 19.3679 134.734 19.0071C134.475 18.6463 134.329 18.2273 134.295 17.75H135.386C135.414 18.0795 135.525 18.3523 135.718 18.5682C135.914 18.7812 136.162 18.9403 136.46 19.0455C136.761 19.1477 137.085 19.1989 137.431 19.1989C137.835 19.1989 138.197 19.1335 138.518 19.0028C138.839 18.8693 139.093 18.6847 139.281 18.4489C139.468 18.2102 139.562 17.9318 139.562 17.6136C139.562 17.3239 139.481 17.0881 139.319 16.9062C139.157 16.7244 138.944 16.5767 138.68 16.4631C138.416 16.3494 138.13 16.25 137.824 16.1648L136.75 15.858C136.068 15.6619 135.528 15.3821 135.13 15.0185C134.733 14.6548 134.534 14.179 134.534 13.5909C134.534 13.1023 134.666 12.6761 134.93 12.3125C135.197 11.946 135.555 11.6619 136.004 11.4602C136.456 11.2557 136.96 11.1534 137.517 11.1534C138.079 11.1534 138.579 11.2543 139.017 11.456C139.454 11.6548 139.801 11.9276 140.056 12.2741C140.315 12.6207 140.451 13.0142 140.466 13.4545H139.443ZM144.112 20.1534C143.697 20.1534 143.321 20.0753 142.983 19.919C142.645 19.7599 142.376 19.5312 142.178 19.233C141.979 18.9318 141.879 18.5682 141.879 18.142C141.879 17.767 141.953 17.4631 142.101 17.2301C142.249 16.9943 142.446 16.8097 142.693 16.6761C142.94 16.5426 143.213 16.4432 143.511 16.3778C143.813 16.3097 144.115 16.2557 144.419 16.2159C144.817 16.1648 145.139 16.1264 145.386 16.1009C145.636 16.0724 145.818 16.0256 145.932 15.9602C146.048 15.8949 146.107 15.7812 146.107 15.6193V15.5852C146.107 15.1648 145.991 14.8381 145.761 14.6051C145.534 14.3722 145.189 14.2557 144.726 14.2557C144.246 14.2557 143.869 14.3608 143.597 14.571C143.324 14.7812 143.132 15.0057 143.021 15.2443L142.067 14.9034C142.237 14.5057 142.464 14.196 142.749 13.9744C143.036 13.75 143.348 13.5937 143.686 13.5057C144.027 13.4148 144.362 13.3693 144.692 13.3693C144.902 13.3693 145.143 13.3949 145.416 13.446C145.692 13.4943 145.957 13.5952 146.213 13.7486C146.472 13.902 146.686 14.1335 146.857 14.4432C147.027 14.7528 147.112 15.1676 147.112 15.6875V20H146.107V19.1136H146.055C145.987 19.2557 145.874 19.4077 145.714 19.5696C145.555 19.7315 145.344 19.8693 145.08 19.983C144.815 20.0966 144.493 20.1534 144.112 20.1534ZM144.266 19.25C144.663 19.25 144.999 19.1719 145.271 19.0156C145.547 18.8594 145.754 18.6577 145.893 18.4105C146.036 18.1634 146.107 17.9034 146.107 17.6307V16.7102C146.064 16.7614 145.97 16.8082 145.825 16.8509C145.683 16.8906 145.518 16.9261 145.331 16.9574C145.146 16.9858 144.966 17.0114 144.79 17.0341C144.616 17.054 144.476 17.071 144.368 17.0852C144.107 17.1193 143.862 17.1747 143.635 17.2514C143.411 17.3253 143.229 17.4375 143.089 17.5881C142.953 17.7358 142.885 17.9375 142.885 18.1932C142.885 18.5426 143.014 18.8068 143.273 18.9858C143.534 19.1619 143.865 19.25 144.266 19.25ZM151.794 13.4545V14.3068H148.402V13.4545H151.794ZM149.391 11.8864H150.397V18.125C150.397 18.4091 150.438 18.6222 150.52 18.7642C150.605 18.9034 150.713 18.9972 150.844 19.0455C150.978 19.0909 151.118 19.1136 151.266 19.1136C151.377 19.1136 151.468 19.108 151.539 19.0966C151.61 19.0824 151.667 19.071 151.709 19.0625L151.914 19.9659C151.846 19.9915 151.75 20.017 151.628 20.0426C151.506 20.071 151.351 20.0852 151.164 20.0852C150.88 20.0852 150.601 20.0241 150.328 19.902C150.059 19.7798 149.834 19.5938 149.655 19.3438C149.479 19.0938 149.391 18.7784 149.391 18.3977V11.8864Z" fill="#CDD0D5"/>
<path d="M139.313 39.1932C138.415 39.1894 137.648 38.9527 137.012 38.483C136.376 38.0133 135.889 37.3295 135.552 36.4318C135.215 35.5341 135.046 34.4527 135.046 33.1875C135.046 31.9261 135.215 30.8485 135.552 29.9545C135.893 29.0606 136.381 28.3788 137.018 27.9091C137.658 27.4394 138.423 27.2045 139.313 27.2045C140.203 27.2045 140.967 27.4413 141.603 27.9148C142.239 28.3845 142.726 29.0663 143.063 29.9602C143.404 30.8504 143.575 31.9261 143.575 33.1875C143.575 34.4564 143.406 35.5398 143.069 36.4375C142.732 37.3314 142.245 38.0152 141.609 38.4886C140.972 38.9583 140.207 39.1932 139.313 39.1932ZM139.313 37.6761C140.101 37.6761 140.717 37.2917 141.16 36.5227C141.607 35.7538 141.83 34.642 141.83 33.1875C141.83 32.2216 141.728 31.4053 141.523 30.7386C141.323 30.0682 141.033 29.5606 140.654 29.2159C140.279 28.8674 139.832 28.6932 139.313 28.6932C138.529 28.6932 137.914 29.0795 137.467 29.8523C137.02 30.625 136.794 31.7367 136.79 33.1875C136.79 34.1572 136.891 34.9773 137.092 35.6477C137.296 36.3144 137.586 36.8201 137.961 37.1648C138.336 37.5057 138.787 37.6761 139.313 37.6761ZM149.829 27.3636V39H148.068V29.125H147.999L145.215 30.9432V29.2614L148.119 27.3636H149.829Z" fill="white"/>
<rect x="171.5" y="0.5" width="47" height="50" rx="7.5" stroke="#5BF5FF"/>
<path d="M190.007 13.4545C189.956 13.0227 189.749 12.6875 189.385 12.4489C189.021 12.2102 188.575 12.0909 188.047 12.0909C187.661 12.0909 187.323 12.1534 187.033 12.2784C186.746 12.4034 186.521 12.5753 186.36 12.794C186.2 13.0128 186.121 13.2614 186.121 13.5398C186.121 13.7727 186.176 13.973 186.287 14.1406C186.401 14.3054 186.546 14.4432 186.722 14.554C186.898 14.6619 187.083 14.7514 187.276 14.8224C187.469 14.8906 187.646 14.946 187.808 14.9886L188.695 15.2273C188.922 15.2869 189.175 15.3693 189.453 15.4744C189.735 15.5795 190.003 15.723 190.259 15.9048C190.517 16.0838 190.73 16.3139 190.898 16.5952C191.066 16.8764 191.149 17.2216 191.149 17.6307C191.149 18.1023 191.026 18.5284 190.779 18.9091C190.534 19.2898 190.176 19.5923 189.705 19.8168C189.236 20.0412 188.666 20.1534 187.996 20.1534C187.371 20.1534 186.83 20.0526 186.372 19.8509C185.918 19.6491 185.56 19.3679 185.298 19.0071C185.04 18.6463 184.894 18.2273 184.86 17.75H185.95C185.979 18.0795 186.09 18.3523 186.283 18.5682C186.479 18.7812 186.726 18.9403 187.024 19.0455C187.325 19.1477 187.649 19.1989 187.996 19.1989C188.399 19.1989 188.762 19.1335 189.083 19.0028C189.404 18.8693 189.658 18.6847 189.845 18.4489C190.033 18.2102 190.127 17.9318 190.127 17.6136C190.127 17.3239 190.046 17.0881 189.884 16.9062C189.722 16.7244 189.509 16.5767 189.244 16.4631C188.98 16.3494 188.695 16.25 188.388 16.1648L187.314 15.858C186.632 15.6619 186.093 15.3821 185.695 15.0185C185.297 14.6548 185.098 14.179 185.098 13.5909C185.098 13.1023 185.23 12.6761 185.494 12.3125C185.762 11.946 186.119 11.6619 186.568 11.4602C187.02 11.2557 187.524 11.1534 188.081 11.1534C188.644 11.1534 189.144 11.2543 189.581 11.456C190.019 11.6548 190.365 11.9276 190.621 12.2741C190.879 12.6207 191.016 13.0142 191.03 13.4545H190.007ZM196.876 17.3239V13.4545H197.881V20H196.876V18.892H196.807C196.654 19.2244 196.415 19.5071 196.091 19.7401C195.768 19.9702 195.358 20.0852 194.864 20.0852C194.455 20.0852 194.091 19.9957 193.773 19.8168C193.455 19.6349 193.205 19.3622 193.023 18.9986C192.841 18.6321 192.751 18.1705 192.751 17.6136V13.4545H193.756V17.5455C193.756 18.0227 193.89 18.4034 194.157 18.6875C194.427 18.9716 194.77 19.1136 195.188 19.1136C195.438 19.1136 195.692 19.0497 195.951 18.9219C196.212 18.794 196.431 18.598 196.607 18.3338C196.786 18.0696 196.876 17.733 196.876 17.3239ZM200.729 16.0625V20H199.723V13.4545H200.695V14.4773H200.78C200.933 14.1449 201.166 13.8778 201.479 13.6761C201.791 13.4716 202.195 13.3693 202.689 13.3693C203.132 13.3693 203.52 13.4602 203.852 13.642C204.185 13.821 204.443 14.0938 204.628 14.4602C204.813 14.8239 204.905 15.2841 204.905 15.8409V20H203.899V15.9091C203.899 15.3949 203.766 14.9943 203.499 14.7074C203.232 14.4176 202.865 14.2727 202.399 14.2727C202.078 14.2727 201.791 14.3423 201.539 14.4815C201.289 14.6207 201.091 14.8239 200.946 15.0909C200.801 15.358 200.729 15.6818 200.729 16.0625Z" fill="white"/>
<path d="M190.276 39.1932C189.378 39.1894 188.611 38.9527 187.975 38.483C187.339 38.0133 186.852 37.3295 186.515 36.4318C186.178 35.5341 186.009 34.4527 186.009 33.1875C186.009 31.9261 186.178 30.8485 186.515 29.9545C186.856 29.0606 187.344 28.3788 187.981 27.9091C188.621 27.4394 189.386 27.2045 190.276 27.2045C191.166 27.2045 191.93 27.4413 192.566 27.9148C193.202 28.3845 193.689 29.0663 194.026 29.9602C194.367 30.8504 194.538 31.9261 194.538 33.1875C194.538 34.4564 194.369 35.5398 194.032 36.4375C193.695 37.3314 193.208 38.0152 192.572 38.4886C191.935 38.9583 191.17 39.1932 190.276 39.1932ZM190.276 37.6761C191.064 37.6761 191.68 37.2917 192.123 36.5227C192.57 35.7538 192.793 34.642 192.793 33.1875C192.793 32.2216 192.691 31.4053 192.486 30.7386C192.286 30.0682 191.996 29.5606 191.617 29.2159C191.242 28.8674 190.795 28.6932 190.276 28.6932C189.492 28.6932 188.877 29.0795 188.43 29.8523C187.983 30.625 187.757 31.7367 187.753 33.1875C187.753 34.1572 187.854 34.9773 188.055 35.6477C188.259 36.3144 188.549 36.8201 188.924 37.1648C189.299 37.5057 189.75 37.6761 190.276 37.6761ZM196.377 39V37.7273L200.315 33.6477C200.735 33.2045 201.082 32.8163 201.354 32.483C201.631 32.1458 201.837 31.8258 201.974 31.5227C202.11 31.2197 202.178 30.8977 202.178 30.5568C202.178 30.1705 202.087 29.8371 201.906 29.5568C201.724 29.2727 201.476 29.0549 201.161 28.9034C200.847 28.7481 200.493 28.6705 200.099 28.6705C199.682 28.6705 199.318 28.7557 199.008 28.9261C198.697 29.0966 198.459 29.3371 198.292 29.6477C198.125 29.9583 198.042 30.322 198.042 30.7386H196.366C196.366 30.0303 196.529 29.411 196.854 28.8807C197.18 28.3504 197.627 27.9394 198.195 27.6477C198.763 27.3523 199.409 27.2045 200.133 27.2045C200.864 27.2045 201.508 27.3504 202.065 27.642C202.625 27.9299 203.063 28.3239 203.377 28.8239C203.692 29.3201 203.849 29.8807 203.849 30.5057C203.849 30.9375 203.767 31.3598 203.604 31.7727C203.445 32.1856 203.167 32.6458 202.769 33.1534C202.371 33.6572 201.818 34.2689 201.11 34.9886L198.798 37.4091V37.4943H204.036V39H196.377Z" fill="white"/>
<path d="M235.629 11.2727H236.89L239.856 18.517H239.959L242.925 11.2727H244.186V20H243.197V13.3693H243.112L240.385 20H239.43L236.703 13.3693H236.618V20H235.629V11.2727ZM248.828 20.1364C248.237 20.1364 247.718 19.9957 247.272 19.7145C246.829 19.4332 246.482 19.0398 246.232 18.5341C245.985 18.0284 245.862 17.4375 245.862 16.7614C245.862 16.0795 245.985 15.4844 246.232 14.9759C246.482 14.4673 246.829 14.0724 247.272 13.7912C247.718 13.5099 248.237 13.3693 248.828 13.3693C249.419 13.3693 249.936 13.5099 250.379 13.7912C250.825 14.0724 251.171 14.4673 251.419 14.9759C251.669 15.4844 251.794 16.0795 251.794 16.7614C251.794 17.4375 251.669 18.0284 251.419 18.5341C251.171 19.0398 250.825 19.4332 250.379 19.7145C249.936 19.9957 249.419 20.1364 248.828 20.1364ZM248.828 19.233C249.276 19.233 249.646 19.1179 249.936 18.8878C250.225 18.6577 250.44 18.3551 250.579 17.9801C250.718 17.6051 250.788 17.1989 250.788 16.7614C250.788 16.3239 250.718 15.9162 250.579 15.5384C250.44 15.1605 250.225 14.8551 249.936 14.6222C249.646 14.3892 249.276 14.2727 248.828 14.2727C248.379 14.2727 248.009 14.3892 247.72 14.6222C247.43 14.8551 247.215 15.1605 247.076 15.5384C246.937 15.9162 246.867 16.3239 246.867 16.7614C246.867 17.1989 246.937 17.6051 247.076 17.9801C247.215 18.3551 247.43 18.6577 247.72 18.8878C248.009 19.1179 248.379 19.233 248.828 19.233ZM254.334 16.0625V20H253.329V13.4545H254.3V14.4773H254.385C254.539 14.1449 254.772 13.8778 255.084 13.6761C255.397 13.4716 255.8 13.3693 256.295 13.3693C256.738 13.3693 257.126 13.4602 257.458 13.642C257.79 13.821 258.049 14.0938 258.233 14.4602C258.418 14.8239 258.51 15.2841 258.51 15.8409V20H257.505V15.9091C257.505 15.3949 257.371 14.9943 257.104 14.7074C256.837 14.4176 256.471 14.2727 256.005 14.2727C255.684 14.2727 255.397 14.3423 255.144 14.4815C254.894 14.6207 254.697 14.8239 254.552 15.0909C254.407 15.358 254.334 15.6818 254.334 16.0625Z" fill="#CDD0D5"/>
<path d="M242.001 39.1932C241.103 39.1894 240.336 38.9527 239.7 38.483C239.063 38.0133 238.576 37.3295 238.239 36.4318C237.902 35.5341 237.734 34.4527 237.734 33.1875C237.734 31.9261 237.902 30.8485 238.239 29.9545C238.58 29.0606 239.069 28.3788 239.705 27.9091C240.345 27.4394 241.11 27.2045 242.001 27.2045C242.891 27.2045 243.654 27.4413 244.29 27.9148C244.927 28.3845 245.414 29.0663 245.751 29.9602C246.092 30.8504 246.262 31.9261 246.262 33.1875C246.262 34.4564 246.093 35.5398 245.756 36.4375C245.419 37.3314 244.932 38.0152 244.296 38.4886C243.66 38.9583 242.895 39.1932 242.001 39.1932ZM242.001 37.6761C242.789 37.6761 243.404 37.2917 243.847 36.5227C244.294 35.7538 244.518 34.642 244.518 33.1875C244.518 32.2216 244.415 31.4053 244.211 30.7386C244.01 30.0682 243.72 29.5606 243.342 29.2159C242.967 28.8674 242.52 28.6932 242.001 28.6932C241.217 28.6932 240.601 29.0795 240.154 29.8523C239.707 30.625 239.482 31.7367 239.478 33.1875C239.478 34.1572 239.578 34.9773 239.779 35.6477C239.984 36.3144 240.273 36.8201 240.648 37.1648C241.023 37.5057 241.474 37.6761 242.001 37.6761ZM247.92 35.9659H249.698C249.736 36.3258 249.859 36.6326 250.068 36.8864C250.28 37.1364 250.556 37.3258 250.897 37.4545C251.238 37.5833 251.617 37.6477 252.033 37.6477C252.48 37.6477 252.88 37.572 253.232 37.4205C253.588 37.2689 253.869 37.0455 254.073 36.75C254.278 36.4545 254.38 36.0909 254.38 35.6591C254.38 35.2727 254.287 34.9167 254.102 34.5909C253.916 34.2652 253.624 34.0038 253.227 33.8068C252.829 33.6098 252.31 33.5114 251.67 33.5114H250.63V32.1818L253.425 28.9545V28.8693H248.494V27.3636H255.721V28.6364L252.607 32.2045V32.2955C253.145 32.3295 253.632 32.4413 254.068 32.6307C254.507 32.8201 254.882 33.0701 255.193 33.3807C255.503 33.6875 255.742 34.0398 255.908 34.4375C256.075 34.8352 256.158 35.2614 256.158 35.7159C256.158 36.3864 255.98 36.9811 255.624 37.5C255.268 38.0189 254.778 38.4261 254.153 38.7216C253.532 39.0133 252.819 39.1591 252.016 39.1591C251.27 39.1591 250.594 39.0303 249.988 38.7727C249.386 38.5152 248.899 38.1477 248.528 37.6705C248.16 37.1932 247.958 36.625 247.92 35.9659Z" fill="white"/>
<path d="M289.197 12.2102V11.2727H295.742V12.2102H292.998V20H291.941V12.2102H289.197ZM300.471 17.3239V13.4545H301.477V20H300.471V18.892H300.403C300.25 19.2244 300.011 19.5071 299.687 19.7401C299.363 19.9702 298.954 20.0852 298.46 20.0852C298.051 20.0852 297.687 19.9957 297.369 19.8168C297.051 19.6349 296.801 19.3622 296.619 18.9986C296.437 18.6321 296.346 18.1705 296.346 17.6136V13.4545H297.352V17.5455C297.352 18.0227 297.485 18.4034 297.752 18.6875C298.022 18.9716 298.366 19.1136 298.784 19.1136C299.034 19.1136 299.288 19.0497 299.547 18.9219C299.808 18.794 300.027 18.598 300.203 18.3338C300.382 18.0696 300.471 17.733 300.471 17.3239ZM306.063 20.1364C305.433 20.1364 304.888 19.9972 304.431 19.7188C303.977 19.4375 303.626 19.0455 303.379 18.5426C303.134 18.0369 303.012 17.4489 303.012 16.7784C303.012 16.108 303.134 15.517 303.379 15.0057C303.626 14.4915 303.969 14.0909 304.41 13.804C304.853 13.5142 305.37 13.3693 305.961 13.3693C306.302 13.3693 306.638 13.4261 306.971 13.5398C307.303 13.6534 307.606 13.8381 307.879 14.0938C308.151 14.3466 308.369 14.6818 308.531 15.0994C308.692 15.517 308.773 16.0312 308.773 16.642V17.0682H303.728V16.1989H307.751C307.751 15.8295 307.677 15.5 307.529 15.2102C307.384 14.9205 307.177 14.6918 306.907 14.5241C306.64 14.3565 306.325 14.2727 305.961 14.2727C305.56 14.2727 305.214 14.3722 304.921 14.571C304.631 14.767 304.408 15.0227 304.252 15.3381C304.096 15.6534 304.018 15.9915 304.018 16.3523V16.9318C304.018 17.4261 304.103 17.8452 304.273 18.1889C304.447 18.5298 304.687 18.7898 304.994 18.9688C305.3 19.1449 305.657 19.233 306.063 19.233C306.327 19.233 306.566 19.196 306.779 19.1222C306.995 19.0455 307.181 18.9318 307.337 18.7812C307.494 18.6278 307.614 18.4375 307.7 18.2102L308.671 18.483C308.569 18.8125 308.397 19.1023 308.156 19.3523C307.914 19.5994 307.616 19.7926 307.261 19.9318C306.906 20.0682 306.506 20.1364 306.063 20.1364Z" fill="#525866"/>
<path d="M293.86 39.1932C292.962 39.1894 292.195 38.9527 291.559 38.483C290.923 38.0133 290.436 37.3295 290.099 36.4318C289.762 35.5341 289.593 34.4527 289.593 33.1875C289.593 31.9261 289.762 30.8485 290.099 29.9545C290.44 29.0606 290.928 28.3788 291.565 27.9091C292.205 27.4394 292.97 27.2045 293.86 27.2045C294.75 27.2045 295.513 27.4413 296.15 27.9148C296.786 28.3845 297.273 29.0663 297.61 29.9602C297.951 30.8504 298.121 31.9261 298.121 33.1875C298.121 34.4564 297.953 35.5398 297.616 36.4375C297.279 37.3314 296.792 38.0152 296.155 38.4886C295.519 38.9583 294.754 39.1932 293.86 39.1932ZM293.86 37.6761C294.648 37.6761 295.263 37.2917 295.707 36.5227C296.154 35.7538 296.377 34.642 296.377 33.1875C296.377 32.2216 296.275 31.4053 296.07 30.7386C295.869 30.0682 295.58 29.5606 295.201 29.2159C294.826 28.8674 294.379 28.6932 293.86 28.6932C293.076 28.6932 292.46 29.0795 292.013 29.8523C291.566 30.625 291.341 31.7367 291.337 33.1875C291.337 34.1572 291.438 34.9773 291.638 35.6477C291.843 36.3144 292.133 36.8201 292.508 37.1648C292.883 37.5057 293.334 37.6761 293.86 37.6761ZM299.717 36.7273V35.3068L304.745 27.3636H305.864V29.4545H305.154L301.558 35.1477V35.2386H308.45V36.7273H299.717ZM305.234 39V36.2955L305.245 35.6477V27.3636H306.91V39H305.234Z" fill="#525866"/>
<g filter="url(#filter1_d_318_2545)">
<rect x="331" y="13.5" width="24" height="24" rx="6" fill="#282C3A"/>
<path d="M343.796 25.4992L340.083 21.7867L341.144 20.7262L345.917 25.4992L341.144 30.2722L340.083 29.2117L343.796 25.4992Z" fill="#CDD0D5"/>
</g>
<defs>
<filter id="filter0_d_318_2545" x="33" y="12.5" width="28" height="28" filterUnits="userSpaceOnUse" color-interpolation-filters="sRGB">
<feFlood flood-opacity="0" result="BackgroundImageFix"/>
<feColorMatrix in="SourceAlpha" type="matrix" values="0 0 0 0 0 0 0 0 0 0 0 0 0 0 0 0 0 0 127 0" result="hardAlpha"/>
<feOffset dy="1"/>
<feGaussianBlur stdDeviation="1"/>
<feComposite in2="hardAlpha" operator="out"/>
<feColorMatrix type="matrix" values="0 0 0 0 0.321569 0 0 0 0 0.345098 0 0 0 0 0.4 0 0 0 0.06 0"/>
<feBlend mode="normal" in2="BackgroundImageFix" result="effect1_dropShadow_318_2545"/>
<feBlend mode="normal" in="SourceGraphic" in2="effect1_dropShadow_318_2545" result="shape"/>
</filter>
<filter id="filter1_d_318_2545" x="329" y="12.5" width="28" height="28" filterUnits="userSpaceOnUse" color-interpolation-filters="sRGB">
<feFlood flood-opacity="0" result="BackgroundImageFix"/>
<feColorMatrix in="SourceAlpha" type="matrix" values="0 0 0 0 0 0 0 0 0 0 0 0 0 0 0 0 0 0 127 0" result="hardAlpha"/>
<feOffset dy="1"/>
<feGaussianBlur stdDeviation="1"/>
<feComposite in2="hardAlpha" operator="out"/>
<feColorMatrix type="matrix" values="0 0 0 0 0.321569 0 0 0 0 0.345098 0 0 0 0 0.4 0 0 0 0.06 0"/>
<feBlend mode="normal" in2="BackgroundImageFix" result="effect1_dropShadow_318_2545"/>
<feBlend mode="normal" in="SourceGraphic" in2="effect1_dropShadow_318_2545" result="shape"/>
</filter>
</defs>
</svg>
