<svg width="16" height="16" viewBox="0 0 16 16" fill="none" xmlns="http://www.w3.org/2000/svg">
<path d="M13.4653 15.5312H2.96533C2.36859 15.5312 1.7963 15.2942 1.37434 14.8722C0.952385 14.4503 0.715332 13.878 0.715332 13.2812V1.28125C0.715332 1.08234 0.79435 0.891572 0.935002 0.75092C1.07565 0.610268 1.26642 0.53125 1.46533 0.53125H11.9653C12.1642 0.53125 12.355 0.610268 12.4957 0.75092C12.6363 0.891572 12.7153 1.08234 12.7153 1.28125V10.2812H15.7153V13.2812C15.7153 13.878 15.4783 14.4503 15.0563 14.8722C14.6344 15.2942 14.0621 15.5312 13.4653 15.5312ZM12.7153 11.7812V13.2812C12.7153 13.4802 12.7943 13.6709 12.935 13.8116C13.0757 13.9522 13.2664 14.0312 13.4653 14.0312C13.6642 14.0312 13.855 13.9522 13.9957 13.8116C14.1363 13.6709 14.2153 13.4802 14.2153 13.2812V11.7812H12.7153ZM11.2153 14.0312V2.03125H2.21533V13.2812C2.21533 13.4802 2.29435 13.6709 2.435 13.8116C2.57565 13.9522 2.76642 14.0312 2.96533 14.0312H11.2153ZM3.71533 4.28125H9.71533V5.78125H3.71533V4.28125ZM3.71533 7.28125H9.71533V8.78125H3.71533V7.28125ZM3.71533 10.2812H7.46533V11.7812H3.71533V10.2812Z" fill="#5BF5FF"/>
</svg>
