<svg width="14" height="16" viewBox="0 0 14 16" fill="none" xmlns="http://www.w3.org/2000/svg">
<path d="M7.96533 8H10.2153L7.21533 11L4.21533 8H6.46533V5H7.96533V8ZM9.46533 2H1.96533V14H12.4653V5H9.46533V2ZM0.465332 1.244C0.465332 0.833 0.800582 0.5 1.21458 0.5H10.2153L13.9653 4.25V14.7448C13.966 14.8432 13.9473 14.9409 13.9103 15.0322C13.8732 15.1234 13.8185 15.2065 13.7494 15.2766C13.6802 15.3468 13.5979 15.4026 13.5072 15.4409C13.4165 15.4792 13.3191 15.4993 13.2206 15.5H1.21008C1.01312 15.4986 0.824595 15.4198 0.685245 15.2806C0.545895 15.1414 0.466903 14.953 0.465332 14.756V1.244Z" fill="#5BF5FF"/>
</svg>
