<svg width="20" height="20" viewBox="0 0 20 20" fill="none" xmlns="http://www.w3.org/2000/svg">
<path d="M6.79688 6.82773V5H8.67188V2.5H6.79688V0H4.29688V2.5H2.42188V5H4.29688V6.82773C2.14023 7.38281 0.546875 9.34023 0.546875 11.6703C0.546875 14.4316 2.78555 16.6703 5.54688 16.6703C8.3082 16.6703 10.5469 14.4316 10.5469 11.6703C10.5469 9.34023 8.95352 7.38281 6.79688 6.82773ZM5.54688 14.1703C4.16602 14.1703 3.04688 13.0508 3.04688 11.6703C3.04688 10.2895 4.16602 9.17031 5.54688 9.17031C6.92773 9.17031 8.04688 10.2895 8.04688 11.6703C8.04688 13.0508 6.92773 14.1703 5.54688 14.1703Z" fill="#5BF5FF"/>
<path d="M19.4532 8.32996C19.4532 5.56855 17.2146 3.32996 14.4532 3.32996C12.1389 3.32996 10.1922 4.90242 9.62231 7.0371C11.1461 8.35015 11.9425 10.4591 11.6659 12.4813C12.1292 12.793 12.6474 13.0294 13.2032 13.1725V16.2501H11.3282V17.5001L13.8282 20.0001H15.0782L17.5782 17.5001V16.2501H15.7032V13.1724C17.8597 12.6174 19.4532 10.6598 19.4532 8.32996ZM14.4532 10.83C13.0725 10.83 11.9532 9.71066 11.9532 8.32996C11.9532 6.94925 13.0725 5.82996 14.4532 5.82996C15.8339 5.82996 16.9532 6.94925 16.9532 8.32996C16.9532 9.71066 15.8339 10.83 14.4532 10.83Z" fill="#5BF5FF"/>
</svg>
