<svg width="20" height="20" viewBox="0 0 20 20" fill="none" xmlns="http://www.w3.org/2000/svg">
<path d="M16.75 15.25H18.25V16.75H1.75V15.25H3.25V4C3.25 3.80109 3.32902 3.61032 3.46967 3.46967C3.61032 3.32902 3.80109 3.25 4 3.25H11.5C11.6989 3.25 11.8897 3.32902 12.0303 3.46967C12.171 3.61032 12.25 3.80109 12.25 4V15.25H13.75V7.75H16C16.1989 7.75 16.3897 7.82902 16.5303 7.96967C16.671 8.11032 16.75 8.30109 16.75 8.5V15.25ZM6.25 9.25V10.75H9.25V9.25H6.25ZM6.25 6.25V7.75H9.25V6.25H6.25Z" fill="#5BF5FF"/>
</svg>
