<svg width="20" height="20" viewBox="0 0 20 20" fill="none" xmlns="http://www.w3.org/2000/svg">
<path d="M6.25 4.75V2.5C6.25 2.30109 6.32902 2.11032 6.46967 1.96967C6.61032 1.82902 6.80109 1.75 7 1.75H13C13.1989 1.75 13.3897 1.82902 13.5303 1.96967C13.671 2.11032 13.75 2.30109 13.75 2.5V4.75H16.75C16.9489 4.75 17.1397 4.82902 17.2803 4.96967C17.421 5.11032 17.5 5.30109 17.5 5.5V16C17.5 16.1989 17.421 16.3897 17.2803 16.5303C17.1397 16.671 16.9489 16.75 16.75 16.75H3.25C3.05109 16.75 2.86032 16.671 2.71967 16.5303C2.57902 16.3897 2.5 16.1989 2.5 16V5.5C2.5 5.30109 2.57902 5.11032 2.71967 4.96967C2.86032 4.82902 3.05109 4.75 3.25 4.75H6.25ZM4 12.25V15.25H16V12.25H4ZM9.25 9.25V10.75H10.75V9.25H9.25ZM7.75 3.25V4.75H12.25V3.25H7.75Z" fill="#5BF5FF"/>
</svg>
