<svg width="17" height="16" viewBox="0 0 17 16" fill="none" xmlns="http://www.w3.org/2000/svg">
<path d="M13.6002 12.8C13.6002 12.9591 13.537 13.1118 13.4245 13.2243C13.3119 13.3368 13.1593 13.4 13.0002 13.4H3.40019C3.24106 13.4 3.08845 13.3368 2.97593 13.2243C2.86341 13.1118 2.80019 12.9591 2.80019 12.8V6.49402C2.80013 6.40258 2.82096 6.31235 2.8611 6.2302C2.90124 6.14805 2.95963 6.07616 3.03179 6.02002L7.83179 2.28682C7.93712 2.20488 8.06675 2.1604 8.20019 2.1604C8.33363 2.1604 8.46327 2.20488 8.56859 2.28682L13.3686 6.02002C13.4408 6.07616 13.4991 6.14805 13.5393 6.2302C13.5794 6.31235 13.6003 6.40258 13.6002 6.49402V12.8ZM12.4002 12.2V6.78682L8.20019 3.52042L4.00019 6.78682V12.2H12.4002ZM5.20019 9.80002H11.2002V11H5.20019V9.80002Z" fill="#0A0D14"/>
</svg>
