<svg width="14" height="15" viewBox="0 0 14 15" fill="none" xmlns="http://www.w3.org/2000/svg">
<path d="M13.75 14C13.75 14.1989 13.671 14.3897 13.5303 14.5304C13.3897 14.671 13.1989 14.75 13 14.75H1C0.801088 14.75 0.610322 14.671 0.46967 14.5304C0.329018 14.3897 0.25 14.1989 0.25 14V6.11752C0.249921 6.00323 0.275963 5.89043 0.326137 5.78775C0.376311 5.68506 0.44929 5.59519 0.5395 5.52502L6.5395 0.858521C6.67116 0.756105 6.8332 0.7005 7 0.7005C7.1668 0.7005 7.32884 0.756105 7.4605 0.858521L13.4605 5.52502C13.5507 5.59519 13.6237 5.68506 13.6739 5.78775C13.724 5.89043 13.7501 6.00323 13.75 6.11752V14ZM12.25 13.25V6.48352L7 2.40052L1.75 6.48352V13.25H12.25ZM3.25 10.25H10.75V11.75H3.25V10.25Z" fill="white"/>
</svg>
