<svg width="43" height="43" viewBox="0 0 43 43" fill="none" xmlns="http://www.w3.org/2000/svg">
<g clip-path="url(#clip0_753_22260)">
<path d="M15.2421 7.73279H15.2342C14.1704 7.73279 13.3081 8.6064 13.3081 9.68405V38.3106C13.3081 39.3882 14.1704 40.2618 15.2342 40.2618H15.2421C16.3059 40.2618 17.1682 39.3882 17.1682 38.3106V9.68405C17.1682 8.6064 16.3059 7.73279 15.2421 7.73279Z" fill="url(#paint0_linear_753_22260)"/>
<path d="M10.201 14.4136C10.201 13.3936 9.38481 12.5668 8.37797 12.5668C7.37113 12.5668 6.55493 13.3936 6.55493 14.4136V33.581C6.55493 34.601 7.37113 35.4278 8.37797 35.4278C9.38481 35.4278 10.201 34.601 10.201 33.581V14.4136Z" fill="url(#paint1_linear_753_22260)"/>
<path d="M-7.58171e-05 30.7143C-7.58171e-05 31.6722 0.766446 32.4487 1.712 32.4487C2.65755 32.4487 3.42407 31.6722 3.42407 30.7143L3.42407 25.8642C3.42407 24.9063 2.65755 24.1298 1.712 24.1298C0.766446 24.1298 -7.58171e-05 24.9063 -7.58171e-05 25.8642L-7.58171e-05 30.7143Z" fill="#42DEF5"/>
<path d="M-7.58171e-05 21.9377C-7.58171e-05 22.8956 0.766446 23.6721 1.712 23.6721C2.65755 23.6721 3.42407 22.8956 3.42407 21.9377L3.42407 21.0704C3.42407 20.1125 2.65755 19.336 1.712 19.336C0.766446 19.336 -7.58171e-05 20.1125 -7.58171e-05 21.0704L-7.58171e-05 21.9377Z" fill="#42DEF5"/>
<path d="M22.5977 0H22.5898C21.6442 0 20.8777 0.776541 20.8777 1.73445V41.2655C20.8777 42.2235 21.6442 43 22.5898 43H22.5977C23.5432 43 24.3098 42.2235 24.3098 41.2655V1.73445C24.3098 0.776541 23.5432 0 22.5977 0Z" fill="url(#paint2_linear_753_22260)"/>
<path d="M40.86 38.2784H22.5979V6.76917H33.8294L43.0001 15.7707V36.1746C43.0001 37.3469 42.049 38.2945 40.86 38.2945V38.2784Z" fill="url(#paint3_linear_753_22260)"/>
<path d="M33.6628 15.9714L43 15.7626L33.861 6.76917L33.6628 15.9714Z" fill="#D5FCFF"/>
</g>
<defs>
<linearGradient id="paint0_linear_753_22260" x1="15.2382" y1="7.73279" x2="15.2382" y2="40.2618" gradientUnits="userSpaceOnUse">
<stop stop-color="#43E9F4"/>
<stop offset="1" stop-color="#375DFB"/>
</linearGradient>
<linearGradient id="paint1_linear_753_22260" x1="8.37797" y1="12.5668" x2="8.37797" y2="35.4278" gradientUnits="userSpaceOnUse">
<stop stop-color="#43E9F4"/>
<stop offset="1" stop-color="#375DFB"/>
</linearGradient>
<linearGradient id="paint2_linear_753_22260" x1="22.5937" y1="0" x2="22.5937" y2="43" gradientUnits="userSpaceOnUse">
<stop stop-color="#43E9F4"/>
<stop offset="1" stop-color="#375DFB"/>
</linearGradient>
<linearGradient id="paint3_linear_753_22260" x1="32.799" y1="6.76917" x2="32.799" y2="38.2945" gradientUnits="userSpaceOnUse">
<stop stop-color="#43E9F4"/>
<stop offset="1" stop-color="#375DFB"/>
</linearGradient>
<clipPath id="clip0_753_22260">
<rect width="43" height="43" fill="white"/>
</clipPath>
</defs>
</svg>
