<svg width="19" height="18" viewBox="0 0 19 18" fill="none" xmlns="http://www.w3.org/2000/svg">
<path d="M4.0665 2.175C4.06625 2.69218 3.86055 3.18806 3.49467 3.55358C3.12879 3.91909 2.6327 4.12429 2.11553 4.12403C1.59836 4.12377 1.10247 3.91808 0.736956 3.5522C0.371443 3.18632 0.166246 2.69023 0.166504 2.17306C0.166763 1.65588 0.372457 1.16 0.738335 0.794482C1.10421 0.428969 1.60031 0.223771 2.11748 0.22403C2.63465 0.224288 3.13054 0.429982 3.49605 0.795861C3.86157 1.16174 4.06676 1.65783 4.0665 2.175ZM4.125 5.56801H0.225004V17.775H4.125V5.56801ZM10.287 5.56801H6.4065V17.775H10.248V11.3693C10.248 7.80076 14.8988 7.46926 14.8988 11.3693V17.775H18.75V10.0433C18.75 4.0275 11.8665 4.25176 10.248 7.20601L10.287 5.56801Z" fill="#65C7F7"/>
</svg>
