<svg width="21" height="20" viewBox="0 0 21 20" fill="none" xmlns="http://www.w3.org/2000/svg">
<path d="M6.42041 4.74999C6.42021 5.14781 6.26199 5.52926 5.98054 5.81043C5.6991 6.09159 5.31749 6.24944 4.91966 6.24924C4.52184 6.24904 4.14038 6.09081 3.85922 5.80937C3.57806 5.52792 3.42021 5.14631 3.42041 4.74849C3.42061 4.35066 3.57884 3.96921 3.86028 3.68805C4.14173 3.40688 4.52334 3.24904 4.92116 3.24924C5.31898 3.24944 5.70044 3.40766 5.9816 3.68911C6.26276 3.97055 6.42061 4.35216 6.42041 4.74999ZM6.46541 7.35999H3.46541V16.75H6.46541V7.35999ZM11.2054 7.35999H8.22041V16.75H11.1754V11.8225C11.1754 9.07749 14.7529 8.82249 14.7529 11.8225V16.75H17.7154V10.8025C17.7154 6.17499 12.4204 6.34749 11.1754 8.61999L11.2054 7.35999Z" fill="#5BF5FF"/>
</svg>
