<svg width="81" height="17" viewBox="0 0 81 17" fill="none" xmlns="http://www.w3.org/2000/svg">
<g clip-path="url(#clip0_318_1544)">
<path d="M27.3172 11.9829V13.6997H20.2645V3.62585H27.1884V5.34266H22.2387V7.7689H26.5018V9.35803H22.2387V11.9829H27.3172Z" fill="#CDD0D5"/>
<path d="M29.9208 13.6622L27.1598 6.19513H29.134L31.0509 11.9238L32.9393 6.19513H34.7561L31.9951 13.6622H29.9208Z" fill="#CDD0D5"/>
<path d="M36.3726 9.31372H40.2923C40.2541 8.94083 40.1468 8.61687 39.9704 8.34186C39.7938 8.06685 39.5627 7.85246 39.2766 7.69868C38.9905 7.54486 38.6708 7.46795 38.3181 7.46795C37.9748 7.46795 37.6623 7.54486 37.3811 7.69868C37.0997 7.85246 36.8708 8.06685 36.6944 8.34186C36.5179 8.61687 36.4106 8.94083 36.3726 9.31372ZM38.3324 13.7636C37.7316 13.7636 37.188 13.6621 36.7016 13.4595C36.2152 13.2568 35.8004 12.9784 35.457 12.6247C35.1137 12.2711 34.8513 11.8677 34.6702 11.415C34.4889 10.9623 34.3984 10.4765 34.3984 9.95755C34.3984 9.2596 34.5579 8.61572 34.8776 8.02596C35.1971 7.43621 35.6501 6.96446 36.2366 6.61078C36.8232 6.25714 37.5264 6.08002 38.3467 6.08002C39.1573 6.08002 39.8535 6.25734 40.4354 6.61147C41.017 6.96581 41.4654 7.43107 41.7801 8.00739C42.0948 8.58377 42.2522 9.21196 42.2522 9.89206C42.2522 10.0151 42.2473 10.1306 42.2379 10.2393C42.2283 10.3479 42.2186 10.4401 42.2093 10.5156H36.4298C36.4584 10.9073 36.5657 11.2407 36.7517 11.5156C36.9376 11.7906 37.1759 12.0027 37.4669 12.1519C37.7577 12.3012 38.0653 12.3757 38.3896 12.3757C38.7806 12.3757 39.1454 12.2827 39.4841 12.0967C39.8224 11.9107 40.0538 11.6603 40.1779 11.3455L41.8087 11.8033C41.6371 12.185 41.3842 12.5237 41.0505 12.8192C40.7166 13.115 40.3209 13.3464 39.8631 13.5132C39.4053 13.68 38.8951 13.7636 38.3324 13.7636Z" fill="#CDD0D5"/>
<path d="M49.7342 13.6622H47.8172V9.49346C47.8172 8.89792 47.7146 8.46314 47.5096 8.18894C47.3044 7.91489 47.0111 7.77776 46.6298 7.77776C46.3723 7.77776 46.1123 7.84341 45.8502 7.97445C45.5878 8.10574 45.3541 8.28602 45.1492 8.51531C44.944 8.74484 44.7844 9.00944 44.67 9.3091V13.6622H42.7673V6.19512H44.4983V7.58802C44.6889 7.26562 44.9321 6.99524 45.2279 6.77717C45.5233 6.55911 45.862 6.38822 46.2435 6.26503C46.6249 6.14184 47.0351 6.08002 47.4738 6.08002C47.941 6.08002 48.325 6.16322 48.6254 6.32913C48.9259 6.49502 49.1548 6.72029 49.3121 7.00484C49.4695 7.28946 49.579 7.60467 49.6411 7.95086C49.7031 8.29704 49.7342 8.64549 49.7342 8.99616V13.6622Z" fill="#CDD0D5"/>
<path d="M55.199 13.2052C55.0273 13.28 54.8293 13.3571 54.6053 13.4362C54.3811 13.5156 54.1379 13.5808 53.8757 13.6322C53.6133 13.6834 53.3486 13.7092 53.0817 13.7092C52.7192 13.7092 52.3901 13.6491 52.0947 13.5289C51.7989 13.4087 51.5629 13.2169 51.3865 12.9533C51.2099 12.6899 51.1219 12.3454 51.1219 11.9202V7.54712H50.149V6.11921H51.1219V3.64709H53.0531V6.11921H54.6268V7.54712H53.0531V11.2828C53.0625 11.5317 53.134 11.7136 53.2677 11.8287C53.4012 11.9438 53.5728 12.0013 53.7827 12.0013C53.9734 12.0013 54.164 11.9663 54.3549 11.8964C54.5456 11.8263 54.703 11.7633 54.827 11.7073L55.199 13.2052Z" fill="#CDD0D5"/>
<path d="M64.2687 3.62585V13.6997H62.3088V9.40059H57.7024V13.6997H55.7282V3.62585H57.7024V7.69796H62.3088V3.62585H64.2687Z" fill="#CDD0D5"/>
<path d="M66.9296 9.31372H70.8494C70.8112 8.94083 70.7038 8.61687 70.5275 8.34186C70.3509 8.06685 70.1198 7.85246 69.8337 7.69868C69.5476 7.54486 69.2279 7.46795 68.8752 7.46795C68.5319 7.46795 68.2193 7.54486 67.9381 7.69868C67.6567 7.85246 67.4279 8.06685 67.2515 8.34186C67.0749 8.61687 66.9676 8.94083 66.9296 9.31372ZM68.8895 13.7636C68.2887 13.7636 67.745 13.6621 67.2586 13.4595C66.7722 13.2568 66.3574 12.9784 66.014 12.6247C65.6707 12.2711 65.4083 11.8677 65.2272 11.415C65.046 10.9623 64.9554 10.4765 64.9554 9.95755C64.9554 9.2596 65.115 8.61572 65.4347 8.02596C65.7541 7.43621 66.2072 6.96446 66.7937 6.61078C67.3802 6.25714 68.0835 6.08002 68.9038 6.08002C69.7143 6.08002 70.4106 6.25734 70.9924 6.61147C71.574 6.96581 72.0224 7.43107 72.3372 8.00739C72.6519 8.58377 72.8092 9.21196 72.8092 9.89206C72.8092 10.0151 72.8043 10.1306 72.795 10.2393C72.7853 10.3479 72.7757 10.4401 72.7663 10.5156H66.9869C67.0154 10.9073 67.1227 11.2407 67.3087 11.5156C67.4947 11.7906 67.733 12.0027 68.024 12.1519C68.3148 12.3012 68.6224 12.3757 68.9467 12.3757C69.3377 12.3757 69.7025 12.2827 70.0411 12.0967C70.3795 11.9107 70.6109 11.6603 70.7349 11.3455L72.3658 11.8033C72.1941 12.185 71.9413 12.5237 71.6075 12.8192C71.2736 13.115 70.878 13.3464 70.4202 13.5132C69.9624 13.68 69.4521 13.7636 68.8895 13.7636Z" fill="#CDD0D5"/>
<path d="M74.2684 6.19446L75.8277 8.5469L75.9565 8.82096L76.0995 8.5469L77.6588 6.19446H79.676L77.0723 9.96108L79.7189 13.7564H77.7018L76.0995 11.4042L75.9565 11.1588L75.842 11.4042L74.2398 13.7564H72.2227L74.8692 10.0043L72.2656 6.19446H74.2684Z" fill="#CDD0D5"/>
<path d="M6.81976 0.812134C3.82985 0.812134 1.39732 3.24457 1.39732 6.23454V10.7655C1.39732 13.7554 3.82985 16.1879 6.81976 16.1879H11.3507C14.3406 16.1879 16.7731 13.7554 16.7731 10.7655V8.75452L14.3604 10.187V10.7655C14.3604 12.425 13.0102 13.7751 11.3507 13.7751H6.81976C5.16021 13.7751 3.81008 12.425 3.81008 10.7655V6.23454C3.81008 4.57498 5.16021 3.22485 6.81976 3.22485H11.3507C12.442 3.22485 13.4586 3.83255 13.9854 4.78432L9.01587 7.79649L7.63232 5.5139L7.09983 5.83665C7.10018 5.83726 7.10059 5.83776 7.10095 5.83837C7.25962 6.10437 7.16624 6.45236 6.89247 6.61567C6.62054 6.77781 6.27314 6.6965 6.11299 6.43484L5.56903 6.76454L8.20311 11.1104L16.7652 5.92079L16.7571 5.81485C16.704 5.1218 16.5202 4.45787 16.2137 3.83773L16.2172 3.8356L16.0547 3.53008L16.052 3.53165C15.0841 1.84953 13.2994 0.812134 11.3507 0.812134H6.81976Z" fill="#375DFB"/>
</g>
<defs>
<clipPath id="clip0_318_1544">
<rect width="79.4414" height="16.4008" fill="white" transform="translate(0.884796 0.5)"/>
</clipPath>
</defs>
</svg>
