<svg width="15" height="16" viewBox="0 0 15 16" fill="none" xmlns="http://www.w3.org/2000/svg">
<path d="M9.68079 2H2.18079V14H12.6808V5H9.68079V2ZM0.680786 1.244C0.680786 0.833 1.01604 0.5 1.43004 0.5H10.4308L14.1808 4.25V14.7448C14.1815 14.8432 14.1628 14.9409 14.1257 15.0322C14.0887 15.1234 14.034 15.2065 13.9648 15.2766C13.8957 15.3468 13.8134 15.4026 13.7227 15.4409C13.6319 15.4792 13.5345 15.4993 13.436 15.5H1.42554C1.22857 15.4986 1.04005 15.4198 0.900699 15.2806C0.76135 15.1414 0.682357 14.953 0.680786 14.756V1.244ZM10.4308 7.25V8.75H4.43079V7.25H10.4308Z" fill="#5BF5FF"/>
</svg>
