<svg width="26" height="26" viewBox="0 0 26 26" fill="none" xmlns="http://www.w3.org/2000/svg">
<path d="M19.825 22.75H6.175C5.39924 22.75 4.65526 22.4418 4.10671 21.8933C3.55817 21.3447 3.25 20.6008 3.25 19.825V4.225C3.25 3.96641 3.35272 3.71842 3.53557 3.53557C3.71842 3.35272 3.96641 3.25 4.225 3.25H17.875C18.1336 3.25 18.3816 3.35272 18.5644 3.53557C18.7473 3.71842 18.85 3.96641 18.85 4.225V15.925H22.75V19.825C22.75 20.6008 22.4418 21.3447 21.8933 21.8933C21.3447 22.4418 20.6008 22.75 19.825 22.75ZM18.85 17.875V19.825C18.85 20.0836 18.9527 20.3316 19.1356 20.5144C19.3184 20.6973 19.5664 20.8 19.825 20.8C20.0836 20.8 20.3316 20.6973 20.5144 20.5144C20.6973 20.3316 20.8 20.0836 20.8 19.825V17.875H18.85ZM16.9 20.8V5.2H5.2V19.825C5.2 20.0836 5.30272 20.3316 5.48557 20.5144C5.66842 20.6973 5.91641 20.8 6.175 20.8H16.9ZM7.15 8.125H14.95V10.075H7.15V8.125ZM7.15 12.025H14.95V13.975H7.15V12.025ZM7.15 15.925H12.025V17.875H7.15V15.925Z" fill="#5BF5FF"/>
</svg>
