<svg width="12" height="13" viewBox="0 0 12 13" fill="none" xmlns="http://www.w3.org/2000/svg">
<path d="M9 2.09999H11.4C11.5591 2.09999 11.7117 2.16321 11.8243 2.27573C11.9368 2.38825 12 2.54086 12 2.69999V12.3C12 12.4591 11.9368 12.6117 11.8243 12.7243C11.7117 12.8368 11.5591 12.9 11.4 12.9H0.6C0.44087 12.9 0.288258 12.8368 0.175736 12.7243C0.0632141 12.6117 0 12.4591 0 12.3V2.69999C0 2.54086 0.0632141 2.38825 0.175736 2.27573C0.288258 2.16321 0.44087 2.09999 0.6 2.09999H3V0.899994H4.2V2.09999H7.8V0.899994H9V2.09999ZM7.8 3.29999H4.2V4.49999H3V3.29999H1.2V5.69999H10.8V3.29999H9V4.49999H7.8V3.29999ZM10.8 6.89999H1.2V11.7H10.8V6.89999Z" fill="#0A0D14"/>
</svg>
