<svg width="18" height="21" viewBox="0 0 18 21" fill="none" xmlns="http://www.w3.org/2000/svg">
<path fill-rule="evenodd" clip-rule="evenodd" d="M11.7367 1.26181H5.08471C3.00471 1.25384 1.30071 2.91084 1.25071 4.99084V15.7278C1.20571 17.8298 2.87371 19.5698 4.97471 19.6148C5.01171 19.6148 5.04871 19.6158 5.08471 19.6148H13.0727C15.1627 19.5408 16.8147 17.8188 16.8028 15.7278V6.53784L11.7367 1.26181Z" stroke="#5BF5FF" stroke-width="1.5" stroke-linecap="round" stroke-linejoin="round"/>
<path d="M11.4749 1.25012V4.15912C11.4749 5.57912 12.6239 6.73012 14.0439 6.73412H16.7979" stroke="#5BF5FF" stroke-width="1.5" stroke-linecap="round" stroke-linejoin="round"/>
<path d="M5.43756 14.875V14.125M5.43756 14.125V12.625H6.18756C6.38647 12.625 6.57724 12.704 6.71789 12.8447C6.85854 12.9853 6.93756 13.1761 6.93756 13.375C6.93756 13.5739 6.85854 13.7647 6.71789 13.9053C6.57724 14.046 6.38647 14.125 6.18756 14.125H5.43756ZM11.4376 14.875V13.9375M11.4376 13.9375V12.625H12.5626M11.4376 13.9375H12.5626M8.43756 14.875V12.625H8.81256C9.11093 12.625 9.39708 12.7435 9.60806 12.9545C9.81903 13.1655 9.93756 13.4516 9.93756 13.75C9.93756 14.0484 9.81903 14.3345 9.60806 14.5455C9.39708 14.7565 9.11093 14.875 8.81256 14.875H8.43756Z" stroke="#5BF5FF" stroke-width="0.75" stroke-linecap="round" stroke-linejoin="round"/>
</svg>
