<svg width="10" height="13" viewBox="0 0 10 13" fill="none" xmlns="http://www.w3.org/2000/svg">
<path d="M0.400391 13C0.400391 11.727 0.906104 10.5061 1.80628 9.60591C2.70645 8.70574 3.92735 8.20002 5.20039 8.20002C6.47343 8.20002 7.69433 8.70574 8.5945 9.60591C9.49468 10.5061 10.0004 11.727 10.0004 13H8.80039C8.80039 12.0452 8.42111 11.1296 7.74598 10.4544C7.07084 9.77931 6.15517 9.40002 5.20039 9.40002C4.24561 9.40002 3.32994 9.77931 2.65481 10.4544C1.97968 11.1296 1.60039 12.0452 1.60039 13H0.400391ZM5.20039 7.60002C3.21139 7.60002 1.60039 5.98902 1.60039 4.00002C1.60039 2.01102 3.21139 0.400024 5.20039 0.400024C7.18939 0.400024 8.80039 2.01102 8.80039 4.00002C8.80039 5.98902 7.18939 7.60002 5.20039 7.60002ZM5.20039 6.40002C6.52639 6.40002 7.60039 5.32602 7.60039 4.00002C7.60039 2.67402 6.52639 1.60002 5.20039 1.60002C3.87439 1.60002 2.80039 2.67402 2.80039 4.00002C2.80039 5.32602 3.87439 6.40002 5.20039 6.40002Z" fill="#0A0D14"/>
</svg>
