<svg width="12" height="11" viewBox="0 0 12 11" fill="none" xmlns="http://www.w3.org/2000/svg">
<path d="M6.625 0H11.625V1.25H6.625V0ZM6.625 4.375H11.625V5.625H6.625V4.375ZM6.625 8.75H11.625V10H6.625V8.75ZM2.5625 9.375C1.87214 9.375 1.3125 8.81538 1.3125 8.125C1.3125 7.43463 1.87214 6.875 2.5625 6.875C3.25286 6.875 3.8125 7.43463 3.8125 8.125C3.8125 8.81538 3.25286 9.375 2.5625 9.375ZM2.5625 10.625C3.94321 10.625 5.0625 9.50569 5.0625 8.125C5.0625 6.74431 3.94321 5.625 2.5625 5.625C1.18179 5.625 0.0625 6.74431 0.0625 8.125C0.0625 9.50569 1.18179 10.625 2.5625 10.625ZM1.625 1.25V3.125H3.5V1.25H1.625ZM0.375 0H4.75V4.375H0.375V0Z" fill="#5BF5FF"/>
</svg>
