<svg width="20" height="18" viewBox="0 0 20 18" fill="none" xmlns="http://www.w3.org/2000/svg">
<path d="M10.4037 2.17501H18.775C19.0336 2.17501 19.2816 2.27773 19.4644 2.46058C19.6473 2.64343 19.75 2.89142 19.75 3.15001V16.8C19.75 17.0586 19.6473 17.3066 19.4644 17.4894C19.2816 17.6723 19.0336 17.775 18.775 17.775H1.225C0.966414 17.775 0.718419 17.6723 0.535571 17.4894C0.352723 17.3066 0.25 17.0586 0.25 16.8V1.20001C0.25 0.94142 0.352723 0.693425 0.535571 0.510577C0.718419 0.327729 0.966414 0.225006 1.225 0.225006H8.45365L10.4037 2.17501ZM17.8 8.02501H2.2V15.825H17.8V8.02501ZM17.8 6.07501V4.12501H9.59635L7.64635 2.17501H2.2V6.07501H17.8Z" fill="#5BF5FF"/>
</svg>
