<svg width="36" height="37" viewBox="0 0 36 37" fill="none" xmlns="http://www.w3.org/2000/svg">
<path d="M6.37646 9.82434C6.37646 8.95978 6.37646 8.5275 6.54739 8.19847C6.69142 7.92119 6.9175 7.69511 7.19477 7.55108C7.52381 7.38016 7.95609 7.38016 8.82065 7.38016H16.2947C16.6625 7.38016 16.8464 7.38016 17.0198 7.42146C17.1673 7.45657 17.3086 7.51356 17.4392 7.59054C17.5927 7.68109 17.7252 7.80864 17.9901 8.06375L18.3227 8.38406C18.5877 8.63916 18.7201 8.76672 18.8737 8.85726C19.0042 8.93424 19.1456 8.99123 19.293 9.02634C19.4665 9.06764 19.6504 9.06764 20.0181 9.06764H27.5571C28.4217 9.06764 28.8539 9.06764 29.183 9.23857C29.4603 9.3826 29.6863 9.60868 29.8304 9.88595C30.0013 10.215 30.0013 10.6473 30.0013 11.5118V28.0954C30.0013 28.5277 30.0013 28.7438 29.9158 28.9083C29.8438 29.047 29.7308 29.16 29.5921 29.232C29.4276 29.3175 29.2115 29.3175 28.7792 29.3175H8.57623C7.79813 29.3175 7.40908 29.3175 7.11294 29.1637C6.8634 29.034 6.65992 28.8306 6.53029 28.581C6.37646 28.2849 6.37646 27.8958 6.37646 27.1177V9.82434Z" fill="url(#paint0_linear_318_2206)"/>
<path d="M6.37646 9.82434C6.37646 8.95978 6.37646 8.5275 6.54739 8.19847C6.69142 7.92119 6.9175 7.69511 7.19477 7.55108C7.52381 7.38016 7.95609 7.38016 8.82065 7.38016H16.2947C16.6625 7.38016 16.8464 7.38016 17.0198 7.42146C17.1673 7.45657 17.3086 7.51356 17.4392 7.59054C17.5927 7.68109 17.7252 7.80864 17.9901 8.06375L18.3227 8.38406C18.5877 8.63916 18.7201 8.76672 18.8737 8.85726C19.0042 8.93424 19.1456 8.99123 19.293 9.02634C19.4665 9.06764 19.6504 9.06764 20.0181 9.06764H27.5571C28.4217 9.06764 28.8539 9.06764 29.183 9.23857C29.4603 9.3826 29.6863 9.60868 29.8304 9.88595C30.0013 10.215 30.0013 10.6473 30.0013 11.5118V28.0954C30.0013 28.5277 30.0013 28.7438 29.9158 28.9083C29.8438 29.047 29.7308 29.16 29.5921 29.232C29.4276 29.3175 29.2115 29.3175 28.7792 29.3175H8.57623C7.79813 29.3175 7.40908 29.3175 7.11294 29.1637C6.8634 29.034 6.65992 28.8306 6.53029 28.581C6.37646 28.2849 6.37646 27.8958 6.37646 27.1177V9.82434Z" fill="url(#paint1_linear_318_2206)"/>
<path d="M9.80813 9.91137C9.80813 9.47668 10.1605 9.12429 10.5952 9.12429H13.9702C14.4049 9.12429 14.7573 9.47668 14.7573 9.91137C14.7573 10.3461 14.4049 10.6984 13.9702 10.6984H10.5952C10.1605 10.6984 9.80813 10.3461 9.80813 9.91137Z" fill="url(#paint2_linear_318_2206)" fill-opacity="0.9" stroke="url(#paint3_linear_318_2206)" stroke-width="0.113333"/>
<g filter="url(#filter0_b_318_2206)">
<path d="M12.6825 14.8167C12.8965 14.0803 13.0035 13.712 13.287 13.4992C13.5706 13.2863 13.955 13.2863 14.7238 13.2863H30.7571C31.9677 13.2863 32.5731 13.2863 32.892 13.6795C33.211 14.0726 33.0863 14.6649 32.8369 15.8496L30.3568 27.6299C30.1866 28.4383 30.1015 28.8425 29.8089 29.08C29.5162 29.3175 29.1031 29.3175 28.277 29.3175H8.06421C8.93705 28.3683 8.93705 27.4191 9.80989 24.5714C10.4503 22.4822 11.9364 17.384 12.6825 14.8167Z" fill="#6AE092" fill-opacity="0.6"/>
<path d="M12.7505 14.8365C12.858 14.4666 12.937 14.1952 13.024 13.9891C13.1102 13.7849 13.2015 13.652 13.3296 13.5558C13.4576 13.4597 13.6109 13.4091 13.8316 13.3833C14.0542 13.3573 14.3377 13.3572 14.7238 13.3572H30.7571C31.3646 13.3572 31.8126 13.3574 32.1489 13.4056C32.4833 13.4536 32.6936 13.5474 32.837 13.7241C32.9804 13.9008 33.0289 14.126 33.0069 14.4631C32.9848 14.8021 32.8927 15.2405 32.7676 15.835L30.2875 27.6154C30.202 28.0213 30.1391 28.3194 30.0617 28.5462C29.9849 28.7711 29.8964 28.9178 29.7642 29.025C29.6321 29.1322 29.4703 29.1887 29.2344 29.2175C28.9966 29.2465 28.6918 29.2466 28.277 29.2466H8.22111C8.59894 28.7993 8.80288 28.3358 9.00477 27.6771C9.09555 27.381 9.18632 27.0439 9.29222 26.6507C9.31413 26.5694 9.33668 26.4856 9.36001 26.3993C9.49631 25.8954 9.65973 25.303 9.87761 24.5922C10.5182 22.5023 12.0044 17.4036 12.7505 14.8365Z" stroke="url(#paint4_linear_318_2206)" stroke-width="0.141667"/>
</g>
<defs>
<filter id="filter0_b_318_2206" x="5.02795" y="10.2501" width="31.0911" height="22.1036" filterUnits="userSpaceOnUse" color-interpolation-filters="sRGB">
<feFlood flood-opacity="0" result="BackgroundImageFix"/>
<feGaussianBlur in="BackgroundImageFix" stdDeviation="1.51813"/>
<feComposite in2="SourceAlpha" operator="in" result="effect1_backgroundBlur_318_2206"/>
<feBlend mode="normal" in="SourceGraphic" in2="effect1_backgroundBlur_318_2206" result="shape"/>
</filter>
<linearGradient id="paint0_linear_318_2206" x1="13.1913" y1="12.1789" x2="31.0173" y2="18.7807" gradientUnits="userSpaceOnUse">
<stop stop-color="#7FC0FB"/>
<stop offset="1" stop-color="#4088F4"/>
</linearGradient>
<linearGradient id="paint1_linear_318_2206" x1="1.13971" y1="7.38764" x2="10.4148" y2="41.1499" gradientUnits="userSpaceOnUse">
<stop stop-color="#75EDA1"/>
<stop offset="1" stop-color="#349256"/>
</linearGradient>
<linearGradient id="paint2_linear_318_2206" x1="9.36671" y1="8.95487" x2="16.2954" y2="11.002" gradientUnits="userSpaceOnUse">
<stop stop-color="white"/>
<stop offset="1" stop-color="white" stop-opacity="0"/>
</linearGradient>
<linearGradient id="paint3_linear_318_2206" x1="8.8943" y1="9.42728" x2="12.2827" y2="10.7551" gradientUnits="userSpaceOnUse">
<stop stop-color="white"/>
<stop offset="1" stop-color="white" stop-opacity="0"/>
</linearGradient>
<linearGradient id="paint4_linear_318_2206" x1="6.79859" y1="14.4314" x2="15.7461" y2="36.0082" gradientUnits="userSpaceOnUse">
<stop stop-color="white"/>
<stop offset="0.765625" stop-color="white" stop-opacity="0"/>
</linearGradient>
</defs>
</svg>
