<svg width="37" height="37" viewBox="0 0 37 37" fill="none" xmlns="http://www.w3.org/2000/svg">
<g filter="url(#filter0_b_318_3239)">
<path d="M5.604 15.6222C5.604 14.034 5.604 13.2399 5.84837 12.6083C6.21694 11.6556 6.9701 10.9024 7.9228 10.5338C8.55445 10.2895 9.34855 10.2895 10.9368 10.2895H25.6653C27.2535 10.2895 28.0476 10.2895 28.6792 10.5338C29.632 10.9024 30.3851 11.6556 30.7537 12.6083C30.998 13.2399 30.998 14.034 30.998 15.6222V23.44H5.604V15.6222Z" fill="url(#paint0_linear_318_3239)"/>
</g>
<g filter="url(#filter1_b_318_3239)">
<rect x="9.2312" y="6.31971" width="5.442" height="7.256" rx="2.721" fill="#FFB7B5" fill-opacity="0.6"/>
<rect x="9.31462" y="6.40313" width="5.27517" height="7.08917" rx="2.63758" stroke="url(#paint1_linear_318_3239)" stroke-width="0.166832"/>
</g>
<g filter="url(#filter2_b_318_3239)">
<rect x="21.928" y="6.31971" width="5.442" height="7.256" rx="2.721" fill="#FFB7B5" fill-opacity="0.6"/>
<rect x="22.0114" y="6.40313" width="5.27517" height="7.08917" rx="2.63758" stroke="url(#paint2_linear_318_3239)" stroke-width="0.166832"/>
</g>
<g filter="url(#filter3_b_318_3239)">
<path d="M5.604 21.1932C5.604 19.1616 5.604 18.1457 5.99939 17.3697C6.34719 16.6871 6.90215 16.1322 7.58474 15.7844C8.36073 15.389 9.37657 15.389 11.4082 15.389H25.1938C27.2255 15.389 28.2413 15.389 29.0173 15.7844C29.6999 16.1322 30.2549 16.6871 30.6027 17.3697C30.998 18.1457 30.998 19.1616 30.998 21.1932V24.8212C30.998 27.8687 30.998 29.3925 30.405 30.5565C29.8833 31.5804 29.0508 32.4128 28.027 32.9345C26.863 33.5276 25.3392 33.5276 22.2917 33.5276H14.3104C11.2629 33.5276 9.7391 33.5276 8.5751 32.9345C7.55122 32.4128 6.71878 31.5804 6.19709 30.5565C5.604 29.3925 5.604 27.8687 5.604 24.8212V21.1932Z" fill="#FFB7B5" fill-opacity="0.6"/>
<path d="M5.68742 21.1932C5.68742 20.176 5.68748 19.4181 5.73657 18.8174C5.78557 18.2176 5.88301 17.7819 6.07372 17.4076C6.41352 16.7407 6.95571 16.1985 7.62261 15.8587C7.99688 15.668 8.43264 15.5706 9.0324 15.5216C9.63314 15.4725 10.391 15.4724 11.4082 15.4724H25.1938C26.211 15.4724 26.9689 15.4725 27.5696 15.5216C28.1694 15.5706 28.6052 15.668 28.9794 15.8587C29.6463 16.1985 30.1885 16.7407 30.5283 17.4076C30.719 17.7819 30.8165 18.2176 30.8655 18.8174C30.9146 19.4181 30.9146 20.176 30.9146 21.1932V24.8212C30.9146 26.3464 30.9146 27.4852 30.8408 28.3884C30.7671 29.2906 30.6202 29.9504 30.3306 30.5186C29.8169 31.5268 28.9973 32.3465 27.9891 32.8602C27.4208 33.1497 26.7611 33.2966 25.8588 33.3703C24.9557 33.4441 23.8168 33.4442 22.2917 33.4442H14.3104C12.7852 33.4442 11.6464 33.4441 10.7432 33.3703C9.84099 33.2966 9.18125 33.1497 8.61297 32.8602C7.60479 32.3465 6.78511 31.5268 6.27141 30.5186C5.98186 29.9504 5.83499 29.2906 5.76128 28.3884C5.68748 27.4852 5.68742 26.3464 5.68742 24.8212V21.1932Z" stroke="url(#paint3_linear_318_3239)" stroke-width="0.166832"/>
</g>
<g filter="url(#filter4_b_318_3239)">
<rect x="23.7419" y="20.8303" width="1.81383" height="10.883" rx="0.906913" transform="rotate(90 23.7419 20.8303)" fill="url(#paint4_linear_318_3239)" fill-opacity="0.9"/>
<rect x="23.6752" y="20.897" width="1.68036" height="10.7495" rx="0.84018" transform="rotate(90 23.6752 20.897)" stroke="url(#paint5_linear_318_3239)" stroke-width="0.133466"/>
</g>
<g filter="url(#filter5_b_318_3239)">
<rect x="23.7419" y="26.2718" width="1.81383" height="10.883" rx="0.906913" transform="rotate(90 23.7419 26.2718)" fill="url(#paint6_linear_318_3239)" fill-opacity="0.9"/>
<rect x="23.6752" y="26.3385" width="1.68036" height="10.7495" rx="0.84018" transform="rotate(90 23.6752 26.3385)" stroke="url(#paint7_linear_318_3239)" stroke-width="0.133466"/>
</g>
<defs>
<filter id="filter0_b_318_3239" x="1.97635" y="6.66183" width="32.6493" height="20.4058" filterUnits="userSpaceOnUse" color-interpolation-filters="sRGB">
<feFlood flood-opacity="0" result="BackgroundImageFix"/>
<feGaussianBlur in="BackgroundImageFix" stdDeviation="1.81383"/>
<feComposite in2="SourceAlpha" operator="in" result="effect1_backgroundBlur_318_3239"/>
<feBlend mode="normal" in="SourceGraphic" in2="effect1_backgroundBlur_318_3239" result="shape"/>
</filter>
<filter id="filter1_b_318_3239" x="5.60355" y="2.69206" width="12.6972" height="14.5113" filterUnits="userSpaceOnUse" color-interpolation-filters="sRGB">
<feFlood flood-opacity="0" result="BackgroundImageFix"/>
<feGaussianBlur in="BackgroundImageFix" stdDeviation="1.81383"/>
<feComposite in2="SourceAlpha" operator="in" result="effect1_backgroundBlur_318_3239"/>
<feBlend mode="normal" in="SourceGraphic" in2="effect1_backgroundBlur_318_3239" result="shape"/>
</filter>
<filter id="filter2_b_318_3239" x="18.3003" y="2.69206" width="12.6972" height="14.5113" filterUnits="userSpaceOnUse" color-interpolation-filters="sRGB">
<feFlood flood-opacity="0" result="BackgroundImageFix"/>
<feGaussianBlur in="BackgroundImageFix" stdDeviation="1.81383"/>
<feComposite in2="SourceAlpha" operator="in" result="effect1_backgroundBlur_318_3239"/>
<feBlend mode="normal" in="SourceGraphic" in2="effect1_backgroundBlur_318_3239" result="shape"/>
</filter>
<filter id="filter3_b_318_3239" x="1.97635" y="11.7613" width="32.6493" height="25.3939" filterUnits="userSpaceOnUse" color-interpolation-filters="sRGB">
<feFlood flood-opacity="0" result="BackgroundImageFix"/>
<feGaussianBlur in="BackgroundImageFix" stdDeviation="1.81383"/>
<feComposite in2="SourceAlpha" operator="in" result="effect1_backgroundBlur_318_3239"/>
<feBlend mode="normal" in="SourceGraphic" in2="effect1_backgroundBlur_318_3239" result="shape"/>
</filter>
<filter id="filter4_b_318_3239" x="9.23124" y="17.2026" width="18.1384" height="9.06913" filterUnits="userSpaceOnUse" color-interpolation-filters="sRGB">
<feFlood flood-opacity="0" result="BackgroundImageFix"/>
<feGaussianBlur in="BackgroundImageFix" stdDeviation="1.81383"/>
<feComposite in2="SourceAlpha" operator="in" result="effect1_backgroundBlur_318_3239"/>
<feBlend mode="normal" in="SourceGraphic" in2="effect1_backgroundBlur_318_3239" result="shape"/>
</filter>
<filter id="filter5_b_318_3239" x="9.23124" y="22.6441" width="18.1384" height="9.06913" filterUnits="userSpaceOnUse" color-interpolation-filters="sRGB">
<feFlood flood-opacity="0" result="BackgroundImageFix"/>
<feGaussianBlur in="BackgroundImageFix" stdDeviation="1.81383"/>
<feComposite in2="SourceAlpha" operator="in" result="effect1_backgroundBlur_318_3239"/>
<feBlend mode="normal" in="SourceGraphic" in2="effect1_backgroundBlur_318_3239" result="shape"/>
</filter>
<linearGradient id="paint0_linear_318_3239" x1="2.95154" y1="16.8745" x2="10.832" y2="24.4969" gradientUnits="userSpaceOnUse">
<stop stop-color="#FF6161"/>
<stop offset="1" stop-color="#F52828"/>
</linearGradient>
<linearGradient id="paint1_linear_318_3239" x1="8.9591" y1="6.838" x2="14.6295" y2="13.3331" gradientUnits="userSpaceOnUse">
<stop stop-color="white"/>
<stop offset="0.765625" stop-color="white" stop-opacity="0"/>
</linearGradient>
<linearGradient id="paint2_linear_318_3239" x1="21.6559" y1="6.838" x2="27.3262" y2="13.3331" gradientUnits="userSpaceOnUse">
<stop stop-color="white"/>
<stop offset="0.765625" stop-color="white" stop-opacity="0"/>
</linearGradient>
<linearGradient id="paint3_linear_318_3239" x1="4.3343" y1="16.6846" x2="15.3139" y2="40.1611" gradientUnits="userSpaceOnUse">
<stop stop-color="white"/>
<stop offset="0.765625" stop-color="white" stop-opacity="0"/>
</linearGradient>
<linearGradient id="paint4_linear_318_3239" x1="26.9155" y1="19.5458" x2="24.5799" y2="29.8894" gradientUnits="userSpaceOnUse">
<stop stop-color="white" stop-opacity="0"/>
<stop offset="0.979167" stop-color="white"/>
</linearGradient>
<linearGradient id="paint5_linear_318_3239" x1="24.6489" y1="20.8303" x2="24.6489" y2="31.7132" gradientUnits="userSpaceOnUse">
<stop stop-color="white" stop-opacity="0"/>
<stop offset="1" stop-color="white"/>
</linearGradient>
<linearGradient id="paint6_linear_318_3239" x1="26.1453" y1="26.1551" x2="24.477" y2="34.8303" gradientUnits="userSpaceOnUse">
<stop stop-color="white" stop-opacity="0"/>
<stop offset="0.979167" stop-color="white"/>
</linearGradient>
<linearGradient id="paint7_linear_318_3239" x1="24.6489" y1="26.2718" x2="24.6489" y2="37.1547" gradientUnits="userSpaceOnUse">
<stop stop-color="white" stop-opacity="0"/>
<stop offset="1" stop-color="white"/>
</linearGradient>
</defs>
</svg>
