<svg width="13" height="13" viewBox="0 0 13 13" fill="none" xmlns="http://www.w3.org/2000/svg">
<path d="M9.2002 1.60002H11.6002C11.7593 1.60002 11.9119 1.66324 12.0245 1.77576C12.137 1.88828 12.2002 2.04089 12.2002 2.20002V11.8C12.2002 11.9592 12.137 12.1118 12.0245 12.2243C11.9119 12.3368 11.7593 12.4 11.6002 12.4H0.800195C0.641065 12.4 0.488453 12.3368 0.375931 12.2243C0.263409 12.1118 0.200195 11.9592 0.200195 11.8V2.20002C0.200195 2.04089 0.263409 1.88828 0.375931 1.77576C0.488453 1.66324 0.641065 1.60002 0.800195 1.60002H3.2002V0.400024H4.4002V1.60002H8.0002V0.400024H9.2002V1.60002ZM1.4002 5.20002V11.2H11.0002V5.20002H1.4002ZM2.6002 6.40002H3.8002V7.60002H2.6002V6.40002ZM5.6002 6.40002H6.8002V7.60002H5.6002V6.40002ZM8.6002 6.40002H9.8002V7.60002H8.6002V6.40002Z" fill="#0A0D14"/>
</svg>
