<svg width="17" height="19" viewBox="0 0 17 19" fill="none" xmlns="http://www.w3.org/2000/svg">
<path d="M13.5565 0.5C15.1405 0.5 16.423 1.805 16.423 3.4115C16.423 5.018 15.1414 6.3221 13.5565 6.3221C13.1508 6.32153 12.75 6.23419 12.3808 6.06592C12.0117 5.89765 11.6828 5.65235 11.4163 5.3465L5.76072 8.4425C5.88672 8.7701 5.95512 9.1265 5.95512 9.5C5.95512 9.9878 5.83812 10.4468 5.62842 10.8509L11.0356 14.2034C11.278 13.7444 11.6406 13.36 12.0847 13.0913C12.5287 12.8226 13.0375 12.6797 13.5565 12.6779C15.1405 12.6779 16.423 13.9829 16.423 15.5885C16.423 17.1941 15.1414 18.5 13.5565 18.5C11.9725 18.5 10.6909 17.195 10.6909 15.5885L10.6936 15.4643L4.81662 11.8229C4.3216 12.2049 3.71388 12.4119 3.08862 12.4115C1.50552 12.4115 0.223022 11.1065 0.223022 9.5C0.223022 7.8935 1.50462 6.5885 3.08952 6.5885C3.85632 6.5885 4.55292 6.8945 5.06682 7.3922L10.8106 4.2485C10.731 3.97664 10.6907 3.69478 10.6909 3.4115C10.69 1.805 11.9725 0.5 13.5565 0.5ZM13.5565 13.9334C12.6637 13.9334 11.9365 14.6732 11.9365 15.5894C11.9365 16.5047 12.6637 17.2445 13.5565 17.2445C14.4502 17.2445 15.1765 16.5047 15.1765 15.5885C15.1765 14.6732 14.4502 13.9334 13.5565 13.9334ZM3.08952 7.8449C2.19582 7.8449 1.46952 8.5847 1.46952 9.5C1.46952 10.4153 2.19582 11.156 3.08952 11.156C3.98232 11.156 4.70952 10.4153 4.70952 9.5C4.70952 8.5847 3.98232 7.844 3.08952 7.844M13.5565 1.7546C12.6637 1.7546 11.9365 2.4944 11.9365 3.4106C11.9365 4.3259 12.6637 5.0657 13.5565 5.0657C14.4502 5.0657 15.1765 4.3259 15.1765 3.4097C15.1765 2.4944 14.4502 1.7546 13.5565 1.7546Z" fill="#5BF5FF"/>
</svg>
