<svg width="18" height="21" viewBox="0 0 18 21" fill="none" xmlns="http://www.w3.org/2000/svg">
<path d="M14.815 0.5C16.575 0.5 18 1.95 18 3.735C18 5.52 16.576 6.969 14.815 6.969C14.3642 6.96837 13.9188 6.87132 13.5087 6.68435C13.0985 6.49739 12.7331 6.22484 12.437 5.885L6.153 9.325C6.293 9.689 6.369 10.085 6.369 10.5C6.369 11.042 6.239 11.552 6.006 12.001L12.014 15.726C12.2833 15.216 12.6862 14.7889 13.1796 14.4903C13.673 14.1918 14.2383 14.033 14.815 14.031C16.575 14.031 18 15.481 18 17.265C18 19.049 16.576 20.5 14.815 20.5C13.055 20.5 11.631 19.05 11.631 17.265L11.634 17.127L5.104 13.081C4.55397 13.5054 3.87873 13.7354 3.184 13.735C1.425 13.735 0 12.285 0 10.5C0 8.715 1.424 7.265 3.185 7.265C4.037 7.265 4.811 7.605 5.382 8.158L11.764 4.665C11.6755 4.36293 11.6308 4.04976 11.631 3.735C11.63 1.95 13.055 0.5 14.815 0.5ZM14.815 15.426C13.823 15.426 13.015 16.248 13.015 17.266C13.015 18.283 13.823 19.105 14.815 19.105C15.808 19.105 16.615 18.283 16.615 17.265C16.615 16.248 15.808 15.426 14.815 15.426ZM3.185 8.661C2.192 8.661 1.385 9.483 1.385 10.5C1.385 11.517 2.192 12.34 3.185 12.34C4.177 12.34 4.985 11.517 4.985 10.5C4.985 9.483 4.177 8.66 3.185 8.66M14.815 1.894C13.823 1.894 13.015 2.716 13.015 3.734C13.015 4.751 13.823 5.573 14.815 5.573C15.808 5.573 16.615 4.751 16.615 3.733C16.615 2.716 15.808 1.894 14.815 1.894Z" fill="#181818"/>
</svg>
