<svg width="32" height="30" viewBox="0 0 32 30" fill="none" xmlns="http://www.w3.org/2000/svg">
<circle cx="20.3984" cy="11.2968" r="11" fill="url(#paint0_linear_318_2192)"/>
<g filter="url(#filter0_b_318_2192)">
<mask id="path-2-inside-1_318_2192" fill="white">
<path fill-rule="evenodd" clip-rule="evenodd" d="M24.6429 6.10944C24.6427 6.10781 24.6427 6.10615 24.6429 6.10452C24.5967 5.90215 24.4949 5.7167 24.349 5.5691C24.203 5.42151 24.0187 5.31764 23.8169 5.26921C22.1899 4.8723 19.6305 5.29542 16.7943 6.431C13.9357 7.57751 11.2572 9.26997 9.44682 11.0836C8.86658 11.6609 8.3275 12.278 7.83352 12.9306C6.6144 12.876 5.54051 13.0496 4.63586 13.4443C1.48352 14.8316 0.583245 18.3819 0.343571 19.8396C0.308889 20.0468 0.322469 20.2591 0.383253 20.4601C0.444037 20.6611 0.550386 20.8454 0.694023 20.9986C0.83766 21.1518 1.01471 21.2698 1.2114 21.3434C1.40808 21.417 1.6191 21.4442 1.82802 21.4229H1.83512L5.3467 21.0397C5.34918 21.0651 5.35184 21.0893 5.35438 21.1124L5.3598 21.163C5.4049 21.5909 5.59573 21.9903 5.9003 22.2943L7.61405 24.0091C7.91752 24.3141 8.31683 24.5052 8.74472 24.5501L8.8621 24.5627L8.47993 28.0699V28.077C8.4604 28.2659 8.4805 28.4568 8.53894 28.6375C8.59739 28.8181 8.69289 28.9846 8.81935 29.1263C8.9458 29.268 9.10043 29.3817 9.27334 29.4602C9.44625 29.5387 9.63364 29.5802 9.82352 29.5822C9.89943 29.5823 9.97522 29.5761 10.0501 29.5636C11.516 29.3278 15.0647 28.4384 16.4481 25.2692C16.8396 24.3705 17.0127 23.301 16.9641 22.0841C17.6196 21.5912 18.239 21.052 18.8176 20.4708C20.6427 18.6549 22.3406 15.9983 23.4751 13.1812C24.6047 10.3772 25.03 7.79862 24.6429 6.10944ZM17.5612 10.1031C16.0644 10.1031 14.851 11.3165 14.851 12.8133C14.851 14.3101 16.0644 15.5235 17.5612 15.5235C19.058 15.5235 20.2714 14.3101 20.2714 12.8133C20.2714 11.3165 19.058 10.1031 17.5612 10.1031Z"/>
</mask>
<path fill-rule="evenodd" clip-rule="evenodd" d="M24.6429 6.10944C24.6427 6.10781 24.6427 6.10615 24.6429 6.10452C24.5967 5.90215 24.4949 5.7167 24.349 5.5691C24.203 5.42151 24.0187 5.31764 23.8169 5.26921C22.1899 4.8723 19.6305 5.29542 16.7943 6.431C13.9357 7.57751 11.2572 9.26997 9.44682 11.0836C8.86658 11.6609 8.3275 12.278 7.83352 12.9306C6.6144 12.876 5.54051 13.0496 4.63586 13.4443C1.48352 14.8316 0.583245 18.3819 0.343571 19.8396C0.308889 20.0468 0.322469 20.2591 0.383253 20.4601C0.444037 20.6611 0.550386 20.8454 0.694023 20.9986C0.83766 21.1518 1.01471 21.2698 1.2114 21.3434C1.40808 21.417 1.6191 21.4442 1.82802 21.4229H1.83512L5.3467 21.0397C5.34918 21.0651 5.35184 21.0893 5.35438 21.1124L5.3598 21.163C5.4049 21.5909 5.59573 21.9903 5.9003 22.2943L7.61405 24.0091C7.91752 24.3141 8.31683 24.5052 8.74472 24.5501L8.8621 24.5627L8.47993 28.0699V28.077C8.4604 28.2659 8.4805 28.4568 8.53894 28.6375C8.59739 28.8181 8.69289 28.9846 8.81935 29.1263C8.9458 29.268 9.10043 29.3817 9.27334 29.4602C9.44625 29.5387 9.63364 29.5802 9.82352 29.5822C9.89943 29.5823 9.97522 29.5761 10.0501 29.5636C11.516 29.3278 15.0647 28.4384 16.4481 25.2692C16.8396 24.3705 17.0127 23.301 16.9641 22.0841C17.6196 21.5912 18.239 21.052 18.8176 20.4708C20.6427 18.6549 22.3406 15.9983 23.4751 13.1812C24.6047 10.3772 25.03 7.79862 24.6429 6.10944ZM17.5612 10.1031C16.0644 10.1031 14.851 11.3165 14.851 12.8133C14.851 14.3101 16.0644 15.5235 17.5612 15.5235C19.058 15.5235 20.2714 14.3101 20.2714 12.8133C20.2714 11.3165 19.058 10.1031 17.5612 10.1031Z" fill="#F8B77B" fill-opacity="0.6"/>
<path d="M24.6429 6.10452L24.9395 6.14934L24.948 6.09318L24.9354 6.0378L24.6429 6.10452ZM24.6429 6.10944L24.3463 6.15425L24.348 6.16543L24.3505 6.17644L24.6429 6.10944ZM24.349 5.5691L24.1357 5.78005V5.78005L24.349 5.5691ZM23.8169 5.26921L23.7458 5.56067L23.7469 5.56093L23.8169 5.26921ZM16.7943 6.431L16.6828 6.1525L16.6826 6.15256L16.7943 6.431ZM9.44682 11.0836L9.6584 11.2963L9.65914 11.2956L9.44682 11.0836ZM7.83352 12.9306L7.8201 13.2303L7.97758 13.2373L8.07272 13.1117L7.83352 12.9306ZM4.63586 13.4443L4.51589 13.1694L4.51503 13.1697L4.63586 13.4443ZM0.343571 19.8396L0.639453 19.8892L0.639596 19.8883L0.343571 19.8396ZM0.383253 20.4601L0.670411 20.3733H0.670411L0.383253 20.4601ZM0.694023 20.9986L0.475172 21.2038H0.475172L0.694023 20.9986ZM1.2114 21.3434L1.10626 21.6244L1.2114 21.3434ZM1.82802 21.4229V21.1229H1.81278L1.79762 21.1245L1.82802 21.4229ZM1.83512 21.4229V21.7229H1.85144L1.86767 21.7211L1.83512 21.4229ZM5.3467 21.0397L5.64528 21.0105L5.61582 20.7085L5.31415 20.7414L5.3467 21.0397ZM5.35438 21.1124L5.65267 21.0805L5.65259 21.0797L5.35438 21.1124ZM5.3598 21.163L5.65815 21.1316L5.65809 21.1311L5.3598 21.163ZM5.9003 22.2943L6.11249 22.0822L6.11221 22.0819L5.9003 22.2943ZM7.61405 24.0091L7.82671 23.7975L7.82625 23.797L7.61405 24.0091ZM8.74472 24.5501L8.77663 24.2518L8.77608 24.2518L8.74472 24.5501ZM8.8621 24.5627L9.16033 24.5952L9.19289 24.2964L8.89401 24.2644L8.8621 24.5627ZM8.47993 28.0699L8.1817 28.0374L8.17993 28.0536V28.0699H8.47993ZM8.47993 28.077L8.77834 28.1079L8.77993 28.0925V28.077H8.47993ZM8.53894 28.6375L8.82438 28.5451L8.53894 28.6375ZM9.27334 29.4602L9.14932 29.7334L9.14932 29.7334L9.27334 29.4602ZM9.82352 29.5822L9.82043 29.8822L9.82304 29.8822L9.82352 29.5822ZM10.0501 29.5636L10.0024 29.2674L10.0008 29.2677L10.0501 29.5636ZM16.4481 25.2692L16.7231 25.3892L16.7232 25.389L16.4481 25.2692ZM16.9641 22.0841L16.7838 21.8443L16.658 21.9388L16.6643 22.096L16.9641 22.0841ZM18.8176 20.4708L18.606 20.2581L18.605 20.2591L18.8176 20.4708ZM23.4751 13.1812L23.1968 13.0691L23.1968 13.0691L23.4751 13.1812ZM24.3463 6.05971C24.3415 6.09104 24.3415 6.12291 24.3463 6.15425L24.9395 6.06462C24.9438 6.0927 24.9438 6.12126 24.9395 6.14934L24.3463 6.05971ZM24.1357 5.78005C24.2423 5.88789 24.3167 6.02338 24.3504 6.17124L24.9354 6.0378C24.8768 5.78091 24.7476 5.54551 24.5623 5.35816L24.1357 5.78005ZM23.7469 5.56093C23.8944 5.59632 24.029 5.67221 24.1357 5.78005L24.5623 5.35816C24.377 5.17081 24.1431 5.03896 23.8869 4.97749L23.7469 5.56093ZM16.9058 6.70951C19.7255 5.58053 22.212 5.18648 23.7458 5.56066L23.888 4.97776C22.1679 4.55812 19.5355 5.01031 16.6828 6.1525L16.9058 6.70951ZM9.65914 11.2956C11.4354 9.51606 14.0772 7.84395 16.9059 6.70944L16.6826 6.15256C13.7941 7.31106 11.079 9.02387 9.23449 10.8717L9.65914 11.2956ZM8.07272 13.1117C8.55824 12.4703 9.08809 11.8637 9.6584 11.2963L9.23524 10.8709C8.64507 11.4581 8.09676 12.0858 7.59432 12.7495L8.07272 13.1117ZM4.75584 13.7193C5.61 13.3466 6.63649 13.1773 7.8201 13.2303L7.84694 12.6309C6.59231 12.5747 5.47102 12.7526 4.51589 13.1694L4.75584 13.7193ZM0.639596 19.8883C0.756526 19.1771 1.0344 17.9592 1.6634 16.7544C2.29168 15.551 3.26129 14.377 4.7567 13.7189L4.51503 13.1697C2.8581 13.8989 1.8014 15.1937 1.13153 16.4767C0.462388 17.7584 0.170289 19.0444 0.0475452 19.791L0.639596 19.8883ZM0.670411 20.3733C0.622988 20.2164 0.612393 20.0508 0.639451 19.8892L0.0476899 19.7901C0.00538546 20.0427 0.0219498 20.3017 0.0960943 20.5469L0.670411 20.3733ZM0.912874 20.7934C0.800809 20.6739 0.717835 20.5301 0.670411 20.3733L0.0960942 20.5469C0.170238 20.7921 0.299963 21.0169 0.475172 21.2038L0.912874 20.7934ZM1.31653 21.0624C1.16308 21.005 1.02494 20.9129 0.912874 20.7934L0.475172 21.2038C0.650379 21.3907 0.866346 21.5346 1.10626 21.6244L1.31653 21.0624ZM1.79762 21.1245C1.63462 21.1411 1.46998 21.1198 1.31653 21.0624L1.10626 21.6244C1.34618 21.7141 1.60358 21.7473 1.85842 21.7214L1.79762 21.1245ZM1.83512 21.1229H1.82802V21.7229H1.83512V21.1229ZM5.31415 20.7414L1.80257 21.1247L1.86767 21.7211L5.37925 21.3379L5.31415 20.7414ZM5.65259 21.0797C5.65003 21.0564 5.64756 21.0339 5.64528 21.0105L5.04811 21.0688C5.0508 21.0963 5.05366 21.1223 5.05617 21.1452L5.65259 21.0797ZM5.65809 21.1311L5.65267 21.0805L5.05609 21.1444L5.06151 21.195L5.65809 21.1311ZM6.11221 22.0819C5.85635 21.8266 5.69604 21.4911 5.65815 21.1316L5.06145 21.1945C5.11377 21.6908 5.33511 22.1541 5.68839 22.5066L6.11221 22.0819ZM7.82625 23.797L6.11249 22.0822L5.6881 22.5063L7.40185 24.2212L7.82625 23.797ZM8.77608 24.2518C8.4168 24.214 8.08152 24.0536 7.8267 23.7975L7.40139 24.2207C7.75352 24.5746 8.21686 24.7963 8.71336 24.8485L8.77608 24.2518ZM8.89401 24.2644L8.77663 24.2518L8.7128 24.8484L8.83018 24.861L8.89401 24.2644ZM8.77816 28.1024L9.16033 24.5952L8.56386 24.5302L8.1817 28.0374L8.77816 28.1024ZM8.77993 28.077V28.0699H8.17993V28.077H8.77993ZM8.82438 28.5451C8.77878 28.4042 8.7631 28.2552 8.77834 28.1079L8.18152 28.0461C8.1577 28.2766 8.18221 28.5094 8.2535 28.7298L8.82438 28.5451ZM9.04315 28.9265C8.94449 28.816 8.86998 28.6861 8.82438 28.5451L8.2535 28.7298C8.32479 28.9502 8.44129 29.1533 8.59554 29.3261L9.04315 28.9265ZM9.39736 29.187C9.26245 29.1258 9.14181 29.037 9.04315 28.9265L8.59554 29.3261C8.74979 29.4989 8.93841 29.6376 9.14932 29.7334L9.39736 29.187ZM9.82661 29.2822C9.67847 29.2807 9.53226 29.2483 9.39736 29.187L9.14932 29.7334C9.36023 29.8291 9.58881 29.8798 9.82043 29.8822L9.82661 29.2822ZM10.0008 29.2677C9.94237 29.2775 9.88324 29.2823 9.82401 29.2822L9.82304 29.8822C9.91562 29.8823 10.0081 29.8748 10.0994 29.8596L10.0008 29.2677ZM16.1732 25.1491C15.5168 26.6527 14.3443 27.6235 13.1414 28.2504C11.9369 28.8781 10.7177 29.1524 10.0024 29.2674L10.0978 29.8598C10.8484 29.7391 12.1365 29.4507 13.4187 28.7825C14.7025 28.1134 15.996 27.0548 16.7231 25.3892L16.1732 25.1491ZM16.6643 22.096C16.7115 23.2785 16.5426 24.3011 16.1731 25.1494L16.7232 25.389C17.1366 24.44 17.3138 23.3235 17.2638 22.0721L16.6643 22.096ZM18.605 20.2591C18.0365 20.8303 17.4279 21.36 16.7838 21.8443L17.1444 22.3238C17.8113 21.8224 18.4415 21.2738 19.0302 20.6824L18.605 20.2591ZM23.1968 13.0691C22.0749 15.8552 20.3976 18.4756 18.606 20.2581L19.0292 20.6834C20.8878 18.8343 22.6064 16.1415 23.7534 13.2933L23.1968 13.0691ZM24.3505 6.17644C24.717 7.77596 24.3186 10.2845 23.1968 13.0691L23.7534 13.2933C24.8908 10.4698 25.343 7.82128 24.9353 6.04243L24.3505 6.17644ZM15.151 12.8133C15.151 11.4821 16.2301 10.4031 17.5612 10.4031V9.80306C15.8987 9.80306 14.551 11.1508 14.551 12.8133H15.151ZM17.5612 15.2235C16.2301 15.2235 15.151 14.1444 15.151 12.8133H14.551C14.551 14.4757 15.8987 15.8235 17.5612 15.8235V15.2235ZM19.9714 12.8133C19.9714 14.1444 18.8923 15.2235 17.5612 15.2235V15.8235C19.2237 15.8235 20.5714 14.4757 20.5714 12.8133H19.9714ZM17.5612 10.4031C18.8923 10.4031 19.9714 11.4821 19.9714 12.8133H20.5714C20.5714 11.1508 19.2237 9.80306 17.5612 9.80306V10.4031Z" fill="url(#paint1_linear_318_2192)" mask="url(#path-2-inside-1_318_2192)"/>
</g>
<g filter="url(#filter1_b_318_2192)">
<path d="M8.34478 19.677C8.14854 19.8688 7.83393 19.8653 7.64208 19.669C7.45022 19.4728 7.45377 19.1582 7.65001 18.9663L11.5774 15.1267C11.7736 14.9348 12.0883 14.9384 12.2801 15.1346C12.472 15.3309 12.4684 15.6455 12.2722 15.8373L8.34478 19.677Z" fill="url(#paint2_linear_318_2192)" fill-opacity="0.9"/>
<path d="M8.30191 19.6331C8.12989 19.8013 7.85411 19.7982 7.68593 19.6261C7.51775 19.4541 7.52087 19.1783 7.69289 19.0102L11.6203 15.1705C11.7923 15.0024 12.0681 15.0055 12.2363 15.1775C12.4044 15.3495 12.4013 15.6253 12.2293 15.7935L8.30191 19.6331Z" stroke="url(#paint3_linear_318_2192)" stroke-width="0.122656"/>
</g>
<g filter="url(#filter2_b_318_2192)">
<path d="M10.9307 22.2631C10.7345 22.4549 10.4199 22.4514 10.228 22.2551C10.0362 22.0589 10.0397 21.7443 10.236 21.5524L14.1633 17.7128C14.3596 17.5209 14.6742 17.5245 14.866 17.7207C15.0579 17.917 15.0543 18.2316 14.8581 18.4235L10.9307 22.2631Z" fill="url(#paint4_linear_318_2192)" fill-opacity="0.9"/>
<path d="M10.8878 22.2192C10.7158 22.3874 10.44 22.3843 10.2719 22.2123C10.1037 22.0402 10.1068 21.7645 10.2788 21.5963L14.2062 17.7567C14.3782 17.5885 14.654 17.5916 14.8222 17.7636C14.9904 17.9356 14.9873 18.2114 14.8152 18.3796L10.8878 22.2192Z" stroke="url(#paint5_linear_318_2192)" stroke-width="0.122656"/>
</g>
<g filter="url(#filter3_b_318_2192)">
<path d="M8.34478 22.2631C8.14854 22.4549 7.83393 22.4514 7.64208 22.2551C7.45022 22.0589 7.45377 21.7443 7.65001 21.5524L11.5774 17.7128C11.7736 17.5209 12.0883 17.5245 12.2801 17.7207C12.472 17.917 12.4684 18.2316 12.2722 18.4235L8.34478 22.2631Z" fill="url(#paint6_linear_318_2192)" fill-opacity="0.9"/>
<path d="M8.30191 22.2192C8.12989 22.3874 7.85411 22.3843 7.68593 22.2123C7.51775 22.0402 7.52087 21.7645 7.69289 21.5963L11.6203 17.7567C11.7923 17.5885 12.0681 17.5916 12.2363 17.7636C12.4044 17.9356 12.4013 18.2114 12.2293 18.3796L8.30191 22.2192Z" stroke="url(#paint7_linear_318_2192)" stroke-width="0.122656"/>
</g>
<defs>
<filter id="filter0_b_318_2192" x="-12.7319" y="-7.93319" width="50.5714" height="50.5722" filterUnits="userSpaceOnUse" color-interpolation-filters="sRGB">
<feFlood flood-opacity="0" result="BackgroundImageFix"/>
<feGaussianBlur in="BackgroundImageFix" stdDeviation="6.52838"/>
<feComposite in2="SourceAlpha" operator="in" result="effect1_backgroundBlur_318_2192"/>
<feBlend mode="normal" in="SourceGraphic" in2="effect1_backgroundBlur_318_2192" result="shape"/>
</filter>
<filter id="filter1_b_318_2192" x="4.16664" y="11.6512" width="11.589" height="11.5012" filterUnits="userSpaceOnUse" color-interpolation-filters="sRGB">
<feFlood flood-opacity="0" result="BackgroundImageFix"/>
<feGaussianBlur in="BackgroundImageFix" stdDeviation="1.66692"/>
<feComposite in2="SourceAlpha" operator="in" result="effect1_backgroundBlur_318_2192"/>
<feBlend mode="normal" in="SourceGraphic" in2="effect1_backgroundBlur_318_2192" result="shape"/>
</filter>
<filter id="filter2_b_318_2192" x="6.75258" y="14.2374" width="11.589" height="11.5012" filterUnits="userSpaceOnUse" color-interpolation-filters="sRGB">
<feFlood flood-opacity="0" result="BackgroundImageFix"/>
<feGaussianBlur in="BackgroundImageFix" stdDeviation="1.66692"/>
<feComposite in2="SourceAlpha" operator="in" result="effect1_backgroundBlur_318_2192"/>
<feBlend mode="normal" in="SourceGraphic" in2="effect1_backgroundBlur_318_2192" result="shape"/>
</filter>
<filter id="filter3_b_318_2192" x="4.16664" y="14.2374" width="11.589" height="11.5012" filterUnits="userSpaceOnUse" color-interpolation-filters="sRGB">
<feFlood flood-opacity="0" result="BackgroundImageFix"/>
<feGaussianBlur in="BackgroundImageFix" stdDeviation="1.66692"/>
<feComposite in2="SourceAlpha" operator="in" result="effect1_backgroundBlur_318_2192"/>
<feBlend mode="normal" in="SourceGraphic" in2="effect1_backgroundBlur_318_2192" result="shape"/>
</filter>
<linearGradient id="paint0_linear_318_2192" x1="13.8984" y1="-2.20319" x2="31.8951" y2="17.5594" gradientUnits="userSpaceOnUse">
<stop stop-color="#FBA47F"/>
<stop offset="1" stop-color="#DF6B00"/>
</linearGradient>
<linearGradient id="paint1_linear_318_2192" x1="-1.42216" y1="7.34708" x2="33.1392" y2="25.1915" gradientUnits="userSpaceOnUse">
<stop stop-color="white"/>
<stop offset="1" stop-color="white" stop-opacity="0"/>
</linearGradient>
<linearGradient id="paint2_linear_318_2192" x1="6.92119" y1="21.3198" x2="12.3397" y2="18.1213" gradientUnits="userSpaceOnUse">
<stop stop-color="white" stop-opacity="0"/>
<stop offset="0.979167" stop-color="white"/>
</linearGradient>
<linearGradient id="paint3_linear_318_2192" x1="8.33684" y1="21.6727" x2="12.9749" y2="17.1383" gradientUnits="userSpaceOnUse">
<stop stop-color="white" stop-opacity="0"/>
<stop offset="1" stop-color="white"/>
</linearGradient>
<linearGradient id="paint4_linear_318_2192" x1="9.50712" y1="23.906" x2="14.9257" y2="20.7074" gradientUnits="userSpaceOnUse">
<stop stop-color="white" stop-opacity="0"/>
<stop offset="0.979167" stop-color="white"/>
</linearGradient>
<linearGradient id="paint5_linear_318_2192" x1="10.9228" y1="24.2588" x2="15.5608" y2="19.7244" gradientUnits="userSpaceOnUse">
<stop stop-color="white" stop-opacity="0"/>
<stop offset="1" stop-color="white"/>
</linearGradient>
<linearGradient id="paint6_linear_318_2192" x1="6.92119" y1="23.906" x2="12.3397" y2="20.7074" gradientUnits="userSpaceOnUse">
<stop stop-color="white" stop-opacity="0"/>
<stop offset="0.979167" stop-color="white"/>
</linearGradient>
<linearGradient id="paint7_linear_318_2192" x1="8.33684" y1="24.2588" x2="12.9749" y2="19.7244" gradientUnits="userSpaceOnUse">
<stop stop-color="white" stop-opacity="0"/>
<stop offset="1" stop-color="white"/>
</linearGradient>
</defs>
</svg>
