<svg width="14" height="16" viewBox="0 0 14 16" fill="none" xmlns="http://www.w3.org/2000/svg">
<path d="M13.9655 5V14.7448C13.9661 14.8432 13.9474 14.9409 13.9104 15.0322C13.8733 15.1234 13.8187 15.2065 13.7495 15.2766C13.6803 15.3468 13.5981 15.4026 13.5073 15.4409C13.4166 15.4792 13.3192 15.4993 13.2207 15.5H1.2102C1.01281 15.5 0.823498 15.4216 0.683851 15.2821C0.544205 15.1426 0.465653 14.9534 0.465454 14.756V1.244C0.465454 0.84125 0.802204 0.5 1.21695 0.5H9.4632L13.9655 5ZM12.4655 5.75H8.71545V2H1.96545V14H12.4655V5.75ZM4.21545 4.25H6.46545V5.75H4.21545V4.25ZM4.21545 7.25H10.2155V8.75H4.21545V7.25ZM4.21545 10.25H10.2155V11.75H4.21545V10.25Z" fill="#10131A"/>
</svg>
