<svg width="16" height="16" viewBox="0 0 16 16" fill="none" xmlns="http://www.w3.org/2000/svg">
<path d="M13.4653 15.5H2.96533C2.36859 15.5 1.7963 15.2629 1.37434 14.841C0.952385 14.419 0.715332 13.8467 0.715332 13.25V1.25C0.715332 1.05109 0.79435 0.860322 0.935002 0.71967C1.07565 0.579018 1.26642 0.5 1.46533 0.5H11.9653C12.1642 0.5 12.355 0.579018 12.4957 0.71967C12.6363 0.860322 12.7153 1.05109 12.7153 1.25V10.25H15.7153V13.25C15.7153 13.8467 15.4783 14.419 15.0563 14.841C14.6344 15.2629 14.0621 15.5 13.4653 15.5ZM12.7153 11.75V13.25C12.7153 13.4489 12.7943 13.6397 12.935 13.7803C13.0757 13.921 13.2664 14 13.4653 14C13.6642 14 13.855 13.921 13.9957 13.7803C14.1363 13.6397 14.2153 13.4489 14.2153 13.25V11.75H12.7153ZM11.2153 14V2H2.21533V13.25C2.21533 13.4489 2.29435 13.6397 2.435 13.7803C2.57565 13.921 2.76642 14 2.96533 14H11.2153ZM3.71533 4.25H9.71533V5.75H3.71533V4.25ZM3.71533 7.25H9.71533V8.75H3.71533V7.25ZM3.71533 10.25H7.46533V11.75H3.71533V10.25Z" fill="#5BF5FF"/>
</svg>
