<svg width="16" height="16" viewBox="0 0 16 16" fill="none" xmlns="http://www.w3.org/2000/svg">
<path d="M3.68066 11.75V13.25C3.68066 13.4489 3.60165 13.6397 3.46099 13.7803C3.32034 13.921 3.12958 14 2.93066 14C2.73175 14 2.54099 13.921 2.40033 13.7803C2.25968 13.6397 2.18066 13.4489 2.18066 13.25V2H12.6807V10.25H14.1807V1.25C14.1807 1.05109 14.1016 0.860322 13.961 0.71967C13.8203 0.579018 13.6296 0.5 13.4307 0.5H1.43066C1.23175 0.5 1.04099 0.579018 0.900333 0.71967C0.759681 0.860322 0.680664 1.05109 0.680664 1.25V13.25C0.680664 13.8467 0.917717 14.419 1.33967 14.841C1.76163 15.2629 2.33393 15.5 2.93066 15.5H13.4307C14.0274 15.5 14.5997 15.2629 15.0217 14.841C15.4436 14.419 15.6807 13.8467 15.6807 13.25V11.75H3.68066Z" fill="#050505"/>
</svg>
