<svg width="31" height="30" viewBox="0 0 31 30" fill="none" xmlns="http://www.w3.org/2000/svg">
<circle cx="18.2555" cy="13.2444" r="12.7444" fill="#917FFB"/>
<circle cx="18.2555" cy="13.2444" r="12.7444" fill="url(#paint0_linear_318_2178)"/>
<g filter="url(#filter0_b_318_2178)">
<ellipse cx="14.4667" cy="16.3444" rx="13.5481" ry="13.5481" fill="#BFB5FF" fill-opacity="0.6"/>
<path d="M27.9054 16.3444C27.9054 23.7665 21.8887 29.7832 14.4667 29.7832C7.04464 29.7832 1.02789 23.7665 1.02789 16.3444C1.02789 8.92241 7.04464 2.90567 14.4667 2.90567C21.8887 2.90567 27.9054 8.92241 27.9054 16.3444Z" stroke="url(#paint1_linear_318_2178)" stroke-width="0.21875"/>
</g>
<path d="M21.9886 9.56073L24.2942 10.0304C24.418 10.0556 24.5198 10.1481 24.5556 10.2729C24.5736 10.3335 24.5752 10.398 24.5602 10.4595C24.5452 10.5209 24.5141 10.5771 24.4703 10.622L22.5815 12.5482C22.3552 12.7776 22.0491 12.9066 21.7299 12.9071H20.1631L16.2286 16.918C16.3037 17.2068 16.3175 17.5086 16.2691 17.8033C16.2208 18.098 16.1113 18.3788 15.9481 18.627C15.7849 18.8752 15.5716 19.0851 15.3226 19.2428C15.0735 19.4004 14.7943 19.5021 14.5037 19.5412C14.213 19.5803 13.9175 19.5558 13.6368 19.4693C13.3562 19.3829 13.0968 19.2365 12.8761 19.0398C12.6553 18.8432 12.4782 18.6009 12.3565 18.3291C12.2348 18.0573 12.1714 17.7621 12.1704 17.4634C12.1703 17.1407 12.2431 16.8223 12.3832 16.5329C12.5232 16.2435 12.7268 15.9908 12.978 15.7944C13.2292 15.598 13.5215 15.4631 13.832 15.4003C14.1426 15.3374 14.4632 15.3483 14.7691 15.432L18.7048 11.4197V9.8257C18.7048 9.50045 18.8314 9.18782 19.057 8.95791L20.9472 7.03167C20.9912 6.98699 21.0464 6.95532 21.1067 6.94001C21.167 6.92471 21.2302 6.92635 21.2897 6.94475C21.4122 6.9812 21.503 7.08495 21.5277 7.21112L21.9886 9.56073Z" fill="url(#paint2_linear_318_2178)" fill-opacity="0.9"/>
<path d="M5.75981 17.3823C5.76124 18.5779 6.01904 19.7593 6.51583 20.8467C7.01261 21.9342 7.73682 22.9025 8.6396 23.6863C9.54239 24.4701 10.6027 25.0511 11.7491 25.3902C12.8956 25.7293 14.1013 25.8185 15.2852 25.6519C16.469 25.4853 17.6033 25.0668 18.6117 24.4245C19.62 23.7822 20.4789 22.9311 21.1303 21.9286C21.7818 20.9261 22.2107 19.7955 22.3881 18.6132C22.5656 17.4308 22.4874 16.2241 22.1588 15.0746C22.1127 14.9403 22.0944 14.798 22.105 14.6564C22.1156 14.5147 22.155 14.3768 22.2206 14.2509C22.2862 14.1249 22.3768 14.0137 22.4868 13.9239C22.5968 13.8341 22.7239 13.7676 22.8604 13.7285C22.9969 13.6894 23.14 13.6785 23.2808 13.6964C23.4217 13.7144 23.5574 13.7608 23.6797 13.8329C23.8021 13.905 23.9085 14.0012 23.9924 14.1157C24.0764 14.2303 24.1362 14.3607 24.1681 14.499C24.8043 16.7252 24.6834 19.0997 23.8246 21.2498C22.9658 23.3999 21.4175 25.2041 19.4228 26.3792C17.428 27.5544 15.0996 28.0341 12.8029 27.743C10.5061 27.4519 8.37097 26.4065 6.73241 24.7708C5.09563 23.1325 4.04923 20.997 3.75749 18.6995C3.46575 16.402 3.94519 14.0726 5.12054 12.0772C6.2959 10.0817 8.10061 8.53309 10.2513 7.6745C12.402 6.81591 14.777 6.69594 17.0032 7.33344C17.2683 7.41094 17.4919 7.59023 17.6253 7.83212C17.7586 8.07402 17.7907 8.35886 17.7147 8.62438C17.6386 8.88991 17.4606 9.11454 17.2194 9.24918C16.9783 9.38382 16.6937 9.41753 16.4277 9.34293C15.1828 8.98541 13.8719 8.92206 12.5983 9.15787C11.3247 9.39367 10.1234 9.92219 9.08893 10.7017C8.05451 11.4813 7.21534 12.4905 6.6376 13.6498C6.05986 14.8092 5.75937 16.0869 5.75981 17.3823Z" fill="url(#paint3_linear_318_2178)" fill-opacity="0.9"/>
<path d="M9.9131 17.3774C9.91319 18.1444 10.1227 18.8969 10.519 19.5536C10.9153 20.2103 11.4834 20.7463 12.162 21.1039C12.8406 21.4615 13.6039 21.627 14.3696 21.5826C15.1354 21.5382 15.8745 21.2855 16.5072 20.852C17.1398 20.4173 17.6415 19.8179 17.9581 19.1187C18.2747 18.4195 18.3941 17.647 18.3034 16.8848C18.2789 16.6999 18.3041 16.5117 18.3764 16.3398C18.4488 16.1678 18.5657 16.0182 18.715 15.9065C18.8644 15.7947 19.0409 15.7247 19.2263 15.7038C19.4117 15.6829 19.5993 15.7118 19.7698 15.7875C19.9403 15.8622 20.0879 15.9808 20.1976 16.1312C20.3073 16.2815 20.3752 16.4583 20.3943 16.6435C20.5468 17.9459 20.29 19.2634 19.6597 20.4133C19.0293 21.5631 18.0567 22.4882 16.8767 23.0602C15.6967 23.6322 14.368 23.8226 13.0748 23.6051C11.7817 23.3876 10.5884 22.7729 9.66046 21.8464C8.73253 20.9199 8.11605 19.7275 7.89658 18.4347C7.67711 17.1419 7.86553 15.8128 8.4357 14.632C9.00586 13.4512 9.92949 12.4771 11.0784 11.845C12.2273 11.2129 13.5444 10.9542 14.8471 11.1047C14.9866 11.1176 15.122 11.1583 15.2456 11.2243C15.3692 11.2903 15.4783 11.3802 15.5667 11.489C15.655 11.5977 15.7207 11.7229 15.76 11.8574C15.7993 11.9918 15.8114 12.1328 15.7955 12.272C15.7796 12.4111 15.7361 12.5457 15.6676 12.6679C15.599 12.79 15.5067 12.8973 15.3962 12.9833C15.2856 13.0693 15.159 13.1324 15.0237 13.1689C14.8885 13.2053 14.7473 13.2144 14.6085 13.1956C14.0186 13.1271 13.421 13.1842 12.8547 13.3631C12.2885 13.542 11.7665 13.8386 11.3231 14.2336C10.8796 14.6285 10.5247 15.1128 10.2817 15.6546C10.0387 16.1965 9.9131 16.7836 9.9131 17.3774Z" fill="url(#paint4_linear_318_2178)" fill-opacity="0.9"/>
<defs>
<filter id="filter0_b_318_2178" x="-1.93764" y="-0.0598657" width="32.8086" height="32.8086" filterUnits="userSpaceOnUse" color-interpolation-filters="sRGB">
<feFlood flood-opacity="0" result="BackgroundImageFix"/>
<feGaussianBlur in="BackgroundImageFix" stdDeviation="1.42808"/>
<feComposite in2="SourceAlpha" operator="in" result="effect1_backgroundBlur_318_2178"/>
<feBlend mode="normal" in="SourceGraphic" in2="effect1_backgroundBlur_318_2178" result="shape"/>
</filter>
<linearGradient id="paint0_linear_318_2178" x1="12.8636" y1="6.07569" x2="32.421" y2="12.8013" gradientUnits="userSpaceOnUse">
<stop stop-color="#917FFB"/>
<stop offset="1" stop-color="#3F2DAF"/>
</linearGradient>
<linearGradient id="paint1_linear_318_2178" x1="-1.01693" y1="5.25959" x2="37.2723" y2="25.0293" gradientUnits="userSpaceOnUse">
<stop stop-color="white"/>
<stop offset="1" stop-color="white" stop-opacity="0"/>
</linearGradient>
<linearGradient id="paint2_linear_318_2178" x1="14.5641" y1="13.2695" x2="26.6947" y2="14.8885" gradientUnits="userSpaceOnUse">
<stop stop-color="white"/>
<stop offset="1" stop-color="white" stop-opacity="0"/>
</linearGradient>
<linearGradient id="paint3_linear_318_2178" x1="7.70799" y1="17.4192" x2="28.1369" y2="20.1962" gradientUnits="userSpaceOnUse">
<stop stop-color="white"/>
<stop offset="1" stop-color="white" stop-opacity="0"/>
</linearGradient>
<linearGradient id="paint4_linear_318_2178" x1="10.2455" y1="17.4028" x2="22.5927" y2="19.0812" gradientUnits="userSpaceOnUse">
<stop stop-color="white"/>
<stop offset="1" stop-color="white" stop-opacity="0"/>
</linearGradient>
</defs>
</svg>
