<svg width="19" height="18" viewBox="0 0 19 18" fill="none" xmlns="http://www.w3.org/2000/svg">
<path d="M14.4489 0C16.0329 0 17.3154 1.305 17.3154 2.9115C17.3154 4.518 16.0338 5.8221 14.4489 5.8221C14.0432 5.82153 13.6423 5.73419 13.2732 5.56592C12.904 5.39765 12.5752 5.15235 12.3087 4.8465L6.65306 7.9425C6.77906 8.2701 6.84746 8.6265 6.84746 9C6.84746 9.4878 6.73046 9.9468 6.52076 10.3509L11.928 13.7034C12.1703 13.2444 12.533 12.86 12.977 12.5913C13.4211 12.3226 13.9298 12.1797 14.4489 12.1779C16.0329 12.1779 17.3154 13.4829 17.3154 15.0885C17.3154 16.6941 16.0338 18 14.4489 18C12.8649 18 11.5833 16.695 11.5833 15.0885L11.586 14.9643L5.70896 11.3229C5.21393 11.7049 4.60621 11.9119 3.98096 11.9115C2.39786 11.9115 1.11536 10.6065 1.11536 9C1.11536 7.3935 2.39696 6.0885 3.98186 6.0885C4.74866 6.0885 5.44526 6.3945 5.95916 6.8922L11.703 3.7485C11.6233 3.47664 11.583 3.19478 11.5833 2.9115C11.5824 1.305 12.8649 0 14.4489 0ZM14.4489 13.4334C13.5561 13.4334 12.8289 14.1732 12.8289 15.0894C12.8289 16.0047 13.5561 16.7445 14.4489 16.7445C15.3426 16.7445 16.0689 16.0047 16.0689 15.0885C16.0689 14.1732 15.3426 13.4334 14.4489 13.4334ZM3.98186 7.3449C3.08816 7.3449 2.36186 8.0847 2.36186 9C2.36186 9.9153 3.08816 10.656 3.98186 10.656C4.87466 10.656 5.60186 9.9153 5.60186 9C5.60186 8.0847 4.87466 7.344 3.98186 7.344M14.4489 1.2546C13.5561 1.2546 12.8289 1.9944 12.8289 2.9106C12.8289 3.8259 13.5561 4.5657 14.4489 4.5657C15.3426 4.5657 16.0689 3.8259 16.0689 2.9097C16.0689 1.9944 15.3426 1.2546 14.4489 1.2546Z" fill="#5BF5FF"/>
</svg>
