<svg width="37" height="37" viewBox="0 0 37 37" fill="none" xmlns="http://www.w3.org/2000/svg">
<circle cx="21.6539" cy="18.7444" r="12.7444" fill="#917FFB"/>
<circle cx="21.6539" cy="18.7444" r="12.7444" fill="url(#paint0_linear_318_3467)"/>
<g filter="url(#filter0_b_318_3467)">
<ellipse cx="17.865" cy="21.8445" rx="13.5481" ry="13.5481" fill="#BFB5FF" fill-opacity="0.6"/>
<path d="M31.3038 21.8445C31.3038 29.2665 25.2871 35.2832 17.865 35.2832C10.443 35.2832 4.42627 29.2665 4.42627 21.8445C4.42627 14.4224 10.443 8.40568 17.865 8.40568C25.2871 8.40568 31.3038 14.4224 31.3038 21.8445Z" stroke="url(#paint1_linear_318_3467)" stroke-width="0.21875"/>
</g>
<path d="M25.387 15.0607L27.6926 15.5304C27.8164 15.5556 27.9182 15.6481 27.954 15.7729C27.9721 15.8335 27.9737 15.898 27.9587 15.9595C27.9436 16.0209 27.9126 16.0771 27.8687 16.122L25.9799 18.0482C25.7536 18.2776 25.4475 18.4066 25.1284 18.4071H23.5615L19.6271 22.418C19.7021 22.7068 19.7159 23.0086 19.6676 23.3033C19.6192 23.598 19.5098 23.8788 19.3465 24.127C19.1833 24.3752 18.9701 24.5852 18.721 24.7428C18.472 24.9004 18.1928 25.0022 17.9021 25.0412C17.6114 25.0803 17.3159 25.0558 17.0353 24.9693C16.7546 24.8829 16.4953 24.7365 16.2745 24.5399C16.0537 24.3432 15.8766 24.101 15.7549 23.8291C15.6333 23.5573 15.5698 23.2621 15.5688 22.9634C15.5688 22.6407 15.6416 22.3223 15.7816 22.0329C15.9217 21.7435 16.1252 21.4908 16.3764 21.2944C16.6277 21.098 16.9199 20.9631 17.2305 20.9003C17.5411 20.8375 17.8617 20.8483 18.1675 20.932L22.1033 16.9197V15.3257C22.1033 15.0005 22.2298 14.6878 22.4554 14.4579L24.3456 12.5317C24.3897 12.487 24.4448 12.4553 24.5051 12.44C24.5654 12.4247 24.6287 12.4264 24.6882 12.4448C24.8106 12.4812 24.9014 12.585 24.9262 12.7111L25.387 15.0607Z" fill="url(#paint2_linear_318_3467)" fill-opacity="0.9"/>
<path d="M9.15812 22.8823C9.15956 24.0779 9.41736 25.2593 9.91414 26.3468C10.4109 27.4342 11.1351 28.4025 12.0379 29.1863C12.9407 29.9701 14.0011 30.5511 15.1475 30.8902C16.2939 31.2293 17.4997 31.3185 18.6835 31.1519C19.8673 30.9853 21.0017 30.5668 22.01 29.9245C23.0183 29.2822 23.8772 28.4311 24.5286 27.4286C25.1801 26.4261 25.609 25.2955 25.7864 24.1132C25.9639 22.9308 25.8857 21.7241 25.5572 20.5746C25.511 20.4403 25.4927 20.298 25.5033 20.1564C25.514 20.0148 25.5533 19.8768 25.6189 19.7509C25.6845 19.6249 25.7751 19.5137 25.8851 19.4239C25.9951 19.3341 26.1222 19.2676 26.2587 19.2285C26.3952 19.1894 26.5383 19.1785 26.6791 19.1965C26.82 19.2144 26.9557 19.2608 27.078 19.3329C27.2004 19.405 27.3068 19.5012 27.3907 19.6157C27.4747 19.7303 27.5345 19.8607 27.5665 19.999C28.2026 22.2253 28.0817 24.5997 27.2229 26.7498C26.3641 28.8999 24.8158 30.7041 22.8211 31.8793C20.8263 33.0544 18.4979 33.5341 16.2012 33.243C13.9044 32.9519 11.7693 31.9065 10.1307 30.2708C8.49394 28.6325 7.44754 26.497 7.1558 24.1995C6.86406 21.902 7.34351 19.5726 8.51886 17.5772C9.69421 15.5817 11.4989 14.0331 13.6496 13.1745C15.8003 12.3159 18.1753 12.196 20.4015 12.8334C20.6666 12.9109 20.8903 13.0902 21.0236 13.3321C21.1569 13.574 21.189 13.8589 21.113 14.1244C21.0369 14.3899 20.8589 14.6145 20.6178 14.7492C20.3766 14.8838 20.092 14.9175 19.8261 14.8429C18.5812 14.4854 17.2702 14.4221 15.9966 14.6579C14.7231 14.8937 13.5217 15.4222 12.4872 16.2017C11.4528 16.9813 10.6137 17.9905 10.0359 19.1499C9.45818 20.3092 9.15768 21.5869 9.15812 22.8823Z" fill="url(#paint3_linear_318_3467)" fill-opacity="0.9"/>
<path d="M13.3117 22.8774C13.3117 23.6444 13.5212 24.3969 13.9176 25.0536C14.3139 25.7103 14.882 26.2463 15.5605 26.6039C16.2391 26.9615 17.0024 27.127 17.7682 27.0826C18.5339 27.0382 19.273 26.7856 19.9057 26.352C20.5383 25.9173 21.04 25.3179 21.3566 24.6187C21.6732 23.9195 21.7926 23.147 21.7019 22.3849C21.6774 22.1999 21.7026 22.0118 21.775 21.8398C21.8473 21.6678 21.9642 21.5182 22.1136 21.4065C22.263 21.2947 22.4394 21.2247 22.6248 21.2038C22.8102 21.1829 22.9979 21.2118 23.1684 21.2875C23.3389 21.3622 23.4865 21.4808 23.5962 21.6312C23.7059 21.7816 23.7737 21.9583 23.7928 22.1435C23.9453 23.4459 23.6886 24.7635 23.0582 25.9133C22.4279 27.0632 21.4552 27.9883 20.2753 28.5602C19.0953 29.1322 17.7665 29.3226 16.4734 29.1051C15.1803 28.8876 13.9869 28.2729 13.059 27.3464C12.1311 26.4199 11.5146 25.2275 11.2951 23.9347C11.0757 22.6419 11.2641 21.3129 11.8343 20.132C12.4044 18.9512 13.3281 17.9771 14.4769 17.345C15.6258 16.713 16.943 16.4542 18.2456 16.6047C18.3851 16.6176 18.5206 16.6583 18.6442 16.7243C18.7677 16.7903 18.8769 16.8803 18.9652 16.989C19.0536 17.0977 19.1193 17.223 19.1586 17.3574C19.1979 17.4919 19.21 17.6328 19.1941 17.772C19.1782 17.9112 19.1347 18.0458 19.0661 18.1679C18.9975 18.2901 18.9053 18.3973 18.7947 18.4833C18.6842 18.5693 18.5576 18.6324 18.4223 18.6689C18.2871 18.7053 18.1459 18.7144 18.0071 18.6956C17.4172 18.6271 16.8195 18.6842 16.2533 18.8631C15.6871 19.042 15.1651 19.3386 14.7216 19.7336C14.2782 20.1285 13.9233 20.6128 13.6803 21.1547C13.4373 21.6965 13.3117 22.2836 13.3117 22.8774Z" fill="url(#paint4_linear_318_3467)" fill-opacity="0.9"/>
<defs>
<filter id="filter0_b_318_3467" x="1.46073" y="5.44014" width="32.8085" height="32.8086" filterUnits="userSpaceOnUse" color-interpolation-filters="sRGB">
<feFlood flood-opacity="0" result="BackgroundImageFix"/>
<feGaussianBlur in="BackgroundImageFix" stdDeviation="1.42808"/>
<feComposite in2="SourceAlpha" operator="in" result="effect1_backgroundBlur_318_3467"/>
<feBlend mode="normal" in="SourceGraphic" in2="effect1_backgroundBlur_318_3467" result="shape"/>
</filter>
<linearGradient id="paint0_linear_318_3467" x1="16.262" y1="11.5757" x2="35.8194" y2="18.3013" gradientUnits="userSpaceOnUse">
<stop stop-color="#917FFB"/>
<stop offset="1" stop-color="#3F2DAF"/>
</linearGradient>
<linearGradient id="paint1_linear_318_3467" x1="2.38145" y1="10.7596" x2="40.6706" y2="30.5293" gradientUnits="userSpaceOnUse">
<stop stop-color="white"/>
<stop offset="1" stop-color="white" stop-opacity="0"/>
</linearGradient>
<linearGradient id="paint2_linear_318_3467" x1="17.9625" y1="18.7695" x2="30.0931" y2="20.3885" gradientUnits="userSpaceOnUse">
<stop stop-color="white"/>
<stop offset="1" stop-color="white" stop-opacity="0"/>
</linearGradient>
<linearGradient id="paint3_linear_318_3467" x1="11.1063" y1="22.9192" x2="31.5353" y2="25.6962" gradientUnits="userSpaceOnUse">
<stop stop-color="white"/>
<stop offset="1" stop-color="white" stop-opacity="0"/>
</linearGradient>
<linearGradient id="paint4_linear_318_3467" x1="13.6441" y1="22.9028" x2="25.9912" y2="24.5812" gradientUnits="userSpaceOnUse">
<stop stop-color="white"/>
<stop offset="1" stop-color="white" stop-opacity="0"/>
</linearGradient>
</defs>
</svg>
