<svg width="24" height="24" viewBox="0 0 24 24" fill="none" xmlns="http://www.w3.org/2000/svg">
<path d="M5.70005 3H18.3C18.5387 3 18.7677 3.09482 18.9364 3.2636C19.1052 3.43239 19.2 3.66131 19.2 3.9V21.1287C19.2001 21.2092 19.1787 21.2882 19.1379 21.3575C19.097 21.4269 19.0384 21.484 18.968 21.523C18.8976 21.5619 18.818 21.5813 18.7376 21.5791C18.6571 21.5769 18.5788 21.5531 18.5106 21.5103L12 17.427L5.48945 21.5094C5.42138 21.5522 5.3431 21.5759 5.26274 21.5782C5.18238 21.5805 5.10289 21.5612 5.03251 21.5223C4.96214 21.4834 4.90346 21.4264 4.86258 21.3572C4.8217 21.288 4.80011 21.2091 4.80005 21.1287V3.9C4.80005 3.66131 4.89487 3.43239 5.06365 3.2636C5.23244 3.09482 5.46135 3 5.70005 3Z" fill="#5BF5FF"/>
</svg>
