<svg width="16" height="14" viewBox="0 0 16 14" fill="none" xmlns="http://www.w3.org/2000/svg">
<path d="M10.9056 2.16249C10.3355 2.1624 9.78825 2.38609 9.38148 2.78542C8.97472 3.18475 8.74097 3.72782 8.73056 4.29774L8.70956 5.47899C8.70833 5.54242 8.6937 5.60486 8.66664 5.66224C8.63958 5.71961 8.6007 5.77062 8.55254 5.8119C8.50438 5.85319 8.44804 5.88383 8.3872 5.90181C8.32637 5.9198 8.26242 5.92471 8.19956 5.91624L7.02881 5.75724C5.48831 5.54724 4.01231 4.83774 2.59631 3.65799C2.14781 6.14049 3.02381 7.86024 5.13356 9.18699L6.44381 10.0105C6.50606 10.0496 6.55778 10.1034 6.59444 10.1671C6.6311 10.2309 6.65159 10.3026 6.6541 10.3761C6.65662 10.4496 6.64109 10.5226 6.60888 10.5887C6.57666 10.6548 6.52874 10.712 6.46931 10.7552L5.27531 11.6275C5.98556 11.6717 6.65981 11.6402 7.21931 11.5292C10.7578 10.8227 13.1106 8.16024 13.1106 3.76824C13.1106 3.40974 12.3516 2.16249 10.9056 2.16249ZM7.23056 4.26999C7.24365 3.54703 7.46972 2.844 7.88048 2.24891C8.29123 1.65382 8.86841 1.19313 9.53974 0.924519C10.2111 0.655905 10.9467 0.591304 11.6546 0.738805C12.3625 0.886306 13.0111 1.23935 13.5193 1.75374C14.0526 1.74999 14.5063 1.88499 15.5211 1.26999C15.2698 2.49999 15.1461 3.03399 14.6106 3.76824C14.6106 9.49974 11.0878 12.2867 7.51331 13C5.06231 13.489 1.49831 12.6857 0.476807 11.6192C0.997307 11.5787 3.11231 11.3515 4.33481 10.4567C3.30056 9.77499 -0.816193 7.35249 1.88906 0.839494C3.15881 2.32224 4.44656 3.33174 5.75156 3.86724C6.62006 4.22349 6.83306 4.21599 7.23131 4.27074L7.23056 4.26999Z" fill="#5BF5FF"/>
</svg>
