<svg width="21" height="20" viewBox="0 0 21 20" fill="none" xmlns="http://www.w3.org/2000/svg">
<path d="M12.9058 5.16249C12.3358 5.1624 11.7885 5.38609 11.3817 5.78542C10.975 6.18475 10.7412 6.72782 10.7308 7.29774L10.7098 8.47899C10.7086 8.54242 10.6939 8.60486 10.6669 8.66224C10.6398 8.71961 10.6009 8.77062 10.5528 8.8119C10.5046 8.85319 10.4483 8.88383 10.3874 8.90181C10.3266 8.9198 10.2627 8.92471 10.1998 8.91624L9.02905 8.75724C7.48855 8.54724 6.01255 7.83774 4.59655 6.65799C4.14805 9.14049 5.02405 10.8602 7.1338 12.187L8.44405 13.0105C8.50631 13.0496 8.55803 13.1034 8.59469 13.1671C8.63135 13.2309 8.65183 13.3026 8.65435 13.3761C8.65686 13.4496 8.64134 13.5226 8.60912 13.5887C8.5769 13.6548 8.52898 13.712 8.46955 13.7552L7.27555 14.6275C7.9858 14.6717 8.66005 14.6402 9.21955 14.5292C12.7581 13.8227 15.1108 11.1602 15.1108 6.76824C15.1108 6.40974 14.3518 5.16249 12.9058 5.16249ZM9.2308 7.26999C9.24389 6.54703 9.46997 5.844 9.88072 5.24891C10.2915 4.65382 10.8687 4.19313 11.54 3.92452C12.2113 3.65591 12.947 3.5913 13.6549 3.7388C14.3627 3.88631 15.0114 4.23935 15.5196 4.75374C16.0528 4.74999 16.5066 4.88499 17.5213 4.26999C17.2701 5.49999 17.1463 6.03399 16.6108 6.76824C16.6108 12.4997 13.0881 15.2867 9.51355 16C7.06255 16.489 3.49855 15.6857 2.47705 14.6192C2.99755 14.5787 5.11255 14.3515 6.33505 13.4567C5.3008 12.775 1.18405 10.3525 3.8893 3.83949C5.15905 5.32224 6.4468 6.33174 7.7518 6.86724C8.6203 7.22349 8.8333 7.21599 9.23155 7.27074L9.2308 7.26999Z" fill="#050505"/>
</svg>
