<svg width="16" height="20" viewBox="0 0 16 20" fill="none" xmlns="http://www.w3.org/2000/svg">
<path d="M1.70005 0.5H14.3C14.5387 0.5 14.7677 0.594821 14.9364 0.763604C15.1052 0.932387 15.2 1.16131 15.2 1.4V18.6287C15.2001 18.7092 15.1787 18.7882 15.1379 18.8575C15.097 18.9269 15.0384 18.984 14.968 19.023C14.8976 19.0619 14.818 19.0813 14.7376 19.0791C14.6571 19.0769 14.5788 19.0531 14.5106 19.0103L8.00005 14.927L1.48945 19.0094C1.42138 19.0522 1.3431 19.0759 1.26274 19.0782C1.18238 19.0805 1.10289 19.0612 1.03251 19.0223C0.962142 18.9834 0.903465 18.9264 0.862583 18.8572C0.821702 18.788 0.800109 18.7091 0.800049 18.6287V1.4C0.800049 1.16131 0.89487 0.932387 1.06365 0.763604C1.23244 0.594821 1.46135 0.5 1.70005 0.5ZM13.4 2.3H2.60005V16.1888L8.00005 12.8039L13.4 16.1888V2.3Z" fill="#5BF5FF"/>
</svg>
